<svg xmlns="http://www.w3.org/2000/svg" width="15" height="15" viewBox="0 0 15 15">
  <g id="Group_275" data-name="Group 275" transform="translate(8204 -4776)">
    <path id="Path_57" data-name="Path 57" d="M11.779,34.02a5.14,5.14,0,0,0,4.873,0,4.115,4.115,0,0,1,.844.146,4.291,4.291,0,0,0-1.119,6.043,4.836,4.836,0,0,0,.354.44,16.768,16.768,0,0,1-7.4-.537A1.869,1.869,0,0,1,8,38.331,4.626,4.626,0,0,1,9.053,35.4,3.818,3.818,0,0,1,11.779,34.02Z" transform="translate(-8212 4750.051)"/>
    <path id="Path_58" data-name="Path 58" d="M19.445,8a3.723,3.723,0,1,1-3.795,3.722A3.758,3.758,0,0,1,19.445,8Z" transform="translate(-8217.231 4768)"/>
    <path id="Path_91" data-name="Path 91" d="M59.214,65.458a3.162,3.162,0,1,0,3.162,3.162A3.162,3.162,0,0,0,59.214,65.458ZM61.2,68.043l-1.738,2.151-.005.007a.549.549,0,0,1-.74.085l-1.4-1.095a.531.531,0,0,1,.654-.837l.989.773,1.415-1.751a.531.531,0,1,1,.826.668Z" transform="translate(-8251.376 4719.218)"/>
  </g>
</svg>
