<svg xmlns="http://www.w3.org/2000/svg" width="26.297" height="26.297" viewBox="0 0 26.297 26.297"><defs><style>.a{fill:#fff;}</style></defs><g transform="translate(12.586 0) rotate(45)"><path class="a" d="M9.695,0A1.554,1.554,0,0,0,8.079,1.483V7.416H1.616A1.554,1.554,0,0,0,0,8.9a1.554,1.554,0,0,0,1.616,1.483H8.079v5.933A1.554,1.554,0,0,0,9.695,17.8a1.554,1.554,0,0,0,1.616-1.483V10.383h6.463A1.554,1.554,0,0,0,19.39,8.9a1.554,1.554,0,0,0-1.616-1.483H11.311V1.483A1.554,1.554,0,0,0,9.695,0Z" transform="translate(0 0)"/></g></svg>