<svg xmlns="http://www.w3.org/2000/svg" width="15.2" height="15.2" viewBox="0 0 15.2 15.2"><defs><style>.a{fill:#fff;}</style></defs><g transform="translate(-8 -8)"><path class="a" d="M39.167,36A3.167,3.167,0,1,1,36,39.167,3.168,3.168,0,0,1,39.167,36Zm1.849,3.641v-.95H39.642V37.317h-.95v1.374H37.317v.95h1.374v1.374h.95V39.641Z" transform="translate(-19.134 -19.134)"/><path class="a" d="M11.784,34.02a5.061,5.061,0,0,0,4.88,0,4.049,4.049,0,0,1,.845.149,4.434,4.434,0,0,0-1.121,6.168,4.92,4.92,0,0,0,.355.45,16.484,16.484,0,0,1-7.407-.548A1.9,1.9,0,0,1,8,38.421a4.779,4.779,0,0,1,1.054-2.989A3.8,3.8,0,0,1,11.784,34.02Z" transform="translate(0 -17.781)"/><path class="a" d="M19.45,8a3.8,3.8,0,1,1-3.8,3.8A3.8,3.8,0,0,1,19.45,8Z" transform="translate(-5.228)"/></g></svg>