<svg xmlns="http://www.w3.org/2000/svg" width="44.432" height="42.665" viewBox="0 0 44.432 42.665"><defs><style>.a{fill:#7480fc;}.b{fill:#f8f8f8;}.c{fill:#272727;}</style></defs><g transform="translate(0 -8.881)"><path class="a" d="M39.443,23.64c0-.312.052-.676.052-.987a13.783,13.783,0,0,0-25-8,9.223,9.223,0,0,0-3.17-.52,9.382,9.382,0,0,0-9.354,9.354,9.041,9.041,0,0,0,.312,2.338A9.293,9.293,0,0,0,0,32.006a9.6,9.6,0,0,0,9.562,9.562h1.351a6.373,6.373,0,0,1-.1-.987v-.624a11.381,11.381,0,1,1,22.761,0v.676a6.361,6.361,0,0,1-.1.987h1.4a9.581,9.581,0,0,0,9.562-9.562A9.684,9.684,0,0,0,39.443,23.64Z"/><path class="b" d="M129.757,216.389a11.589,11.589,0,0,0-23.177,0v.624a6.361,6.361,0,0,0,.1.987,11.552,11.552,0,0,0,11.485,9.978,11.671,11.671,0,0,0,11.485-9.926,6.374,6.374,0,0,0,.1-.987Z" transform="translate(-95.979 -176.431)"/><path class="c" d="M177.7,263.966a1.512,1.512,0,0,0-2.027,0l-3.534,3.014a1.547,1.547,0,1,0,2.027,2.338l.987-.831v5.353a1.559,1.559,0,1,0,3.118,0v-5.3l.987.831a1.554,1.554,0,0,0,.987.364,1.637,1.637,0,0,0,1.2-.572,1.519,1.519,0,0,0-.208-2.183Z" transform="translate(-154.523 -229.361)"/></g></svg>