<svg xmlns="http://www.w3.org/2000/svg" width="24" height="24" viewBox="0 0 24 24"><defs><style>.a{fill:#555;}</style></defs><g transform="translate(-2.518 -3.348)"><g transform="translate(2.518 3.348)"><path class="a" d="M24.639,15.647,16.2,25.111l-1.3-1.456,8.441-9.464a5.607,5.607,0,0,0,0-7.281,4.254,4.254,0,0,0-6.493,0L5.159,20.015a3.363,3.363,0,0,0,0,4.369,2.606,2.606,0,0,0,3.9,0L20.744,11.278a1.122,1.122,0,0,0,0-1.457.85.85,0,0,0-1.3,0L11,19.286,9.7,17.83l8.441-9.464a2.552,2.552,0,0,1,3.9,0,3.363,3.363,0,0,1,0,4.369L10.353,25.839a4.325,4.325,0,0,1-3.246,1.508,4.325,4.325,0,0,1-3.246-1.508,5.607,5.607,0,0,1,0-7.281l11.688-13.1a5.956,5.956,0,0,1,9.091,0A7.848,7.848,0,0,1,24.639,15.647Z" transform="translate(-2.518 -3.348)"/></g></g></svg>