<svg xmlns="http://www.w3.org/2000/svg" width="26.939" height="19.955" viewBox="0 0 26.939 19.955"><defs><style>.a{fill:#787878;}</style></defs><g transform="translate(-10 -23)"><g transform="translate(10 23)"><path class="a" d="M12.694,975.362a2.522,2.522,0,0,0-1.568.555l.01.011,11.786,12.149a.844.844,0,0,0,1.094,0L35.8,975.928l.01-.011a2.522,2.522,0,0,0-1.568-.555H12.694Zm-2.431,1.686a3.191,3.191,0,0,0-.263,1.27v14.042a2.828,2.828,0,0,0,2.694,2.956H34.245a2.828,2.828,0,0,0,2.694-2.956V978.319a3.191,3.191,0,0,0-.263-1.27l-11.733,12.1a2.022,2.022,0,0,1-2.947,0l-11.733-12.1Z" transform="translate(-10 -975.362)"/></g></g></svg>