<svg xmlns="http://www.w3.org/2000/svg" width="12.478" height="14.038" viewBox="0 0 12.478 14.038"><defs><style>.a{fill:#fff;}</style></defs><g transform="translate(-25.6)"><g transform="translate(25.6)"><g transform="translate(0)"><path class="a" d="M35.738,4.679H33.4V2.34L31.059,0H25.6V9.359h4.679v4.679h7.8V7.019Zm0,1.654.685.685h-.685ZM31.059,1.654l.685.685h-.685Zm-.78,6.534H26.77V1.17h3.509V3.12h1.95v1.56h-1.95Zm6.629,4.679H31.449V5.849h3.509V7.8h1.95Z" transform="translate(-25.6)"/></g></g><g transform="translate(34.179)"><g transform="translate(0)"><path class="a" d="M308.76,1.17V0L307.2,1.56l1.56,1.56V1.95a1.562,1.562,0,0,1,1.56,1.56v.78h.78v-.78A2.342,2.342,0,0,0,308.76,1.17Z" transform="translate(-307.2)"/></g></g></g></svg>