<svg xmlns="http://www.w3.org/2000/svg" width="22.35" height="21" viewBox="0 0 22.35 21"><defs><style>.a{fill:#fad300;}</style></defs><path class="a" d="M22.35,10.8A1.8,1.8,0,0,0,20.55,9H1.8A1.8,1.8,0,0,0,0,10.8V28.2A1.8,1.8,0,0,0,1.8,30H20.55a1.8,1.8,0,0,0,1.8-1.8Zm-15.525.45H10.05V13.8H6.825Zm-2.25,16.5H2.25V25.2H4.575Zm0-13.95H2.25V11.25H4.575ZM10.05,27.75H6.825V25.2H10.05Zm-.825-6.172V17.422c0-.619.44-.848.958-.509l3.018,1.97a.683.683,0,0,1,0,1.233l-3.024,1.971C9.663,22.426,9.225,22.2,9.225,21.578Zm6.3,6.172H12.3V25.2h3.225Zm0-13.95H12.3V11.25h3.225ZM20.1,27.75H17.775V25.2H20.1Zm0-13.95H17.775V11.25H20.1Z" transform="translate(0 -9)"/></svg>