<svg xmlns="http://www.w3.org/2000/svg" xmlns:xlink="http://www.w3.org/1999/xlink" width="125.219" height="131.928" viewBox="0 0 125.219 131.928">
  <defs>
    <clipPath id="clip-path">
      <path id="Rectangle_945" data-name="Rectangle 945" d="M15,0H125.219a0,0,0,0,1,0,0V131.928a0,0,0,0,1,0,0H0a0,0,0,0,1,0,0V15A15,15,0,0,1,15,0Z" transform="translate(0 0)" fill="none"/>
    </clipPath>
  </defs>
  <g id="Group_740" data-name="Group 740" clip-path="url(#clip-path)">
    <g id="Group_739" data-name="Group 739" transform="translate(-6.266 2.222)">
      <g id="Group_726" data-name="Group 726" transform="translate(18.396)">
        <g id="Group_725" data-name="Group 725" transform="translate(5.554 2.467)">
          <path id="Path_956" data-name="Path 956" d="M68.29,112.26a.42.42,0,0,1-.4-.289c-7.172-21.785-6.149-45.9,2.808-66.155a.42.42,0,1,1,.768.34c-8.873,20.07-9.886,43.963-2.778,65.553a.42.42,0,0,1-.4.551Z" transform="translate(-63.161 -45.566)" fill="#eae1bb"/>
        </g>
        <path id="Path_957" data-name="Path 957" d="M81.839,41.923a2.812,2.812,0,0,0,2.073.835,2.728,2.728,0,0,0,2.349-1.824,3.278,3.278,0,0,0,.192-1.969,2.939,2.939,0,0,0-1.261-1.78,2.443,2.443,0,0,0-2.2-.273,2.316,2.316,0,0,0-.929.859C81.314,38.855,80.609,40.64,81.839,41.923Z" transform="translate(-70.573 -36.756)" fill="#eae1bb"/>
        <path id="Path_958" data-name="Path 958" d="M91.917,43.427a.934.934,0,0,0,.629.536.675.675,0,0,0,.73-.321.812.812,0,0,0,.025-.589,1.029,1.029,0,0,0-.548-.668C91.985,42.054,91.635,42.812,91.917,43.427Z" transform="translate(-78.241 -40.751)" fill="#c15d7c"/>
        <path id="Path_959" data-name="Path 959" d="M76.136,84.535a2.815,2.815,0,0,0,.971,2.013,2.727,2.727,0,0,0,2.964.233,3.28,3.28,0,0,0,1.468-1.327,2.939,2.939,0,0,0,.267-2.165A2.444,2.444,0,0,0,80.36,81.6a2.318,2.318,0,0,0-1.266.01C77.813,81.914,76.09,82.758,76.136,84.535Z" transform="translate(-66.948 -68.985)" fill="#eae1bb"/>
        <path id="Path_960" data-name="Path 960" d="M88.366,89.841a.935.935,0,0,0,.1.82.674.674,0,0,0,.756.254.811.811,0,0,0,.415-.418,1.028,1.028,0,0,0,.045-.862C89.34,88.873,88.572,89.2,88.366,89.841Z" transform="translate(-75.719 -74.51)" fill="#c15d7c"/>
        <path id="Path_961" data-name="Path 961" d="M68.211,117.387a2.813,2.813,0,0,0,1.245,1.856,2.727,2.727,0,0,0,2.968-.187,3.277,3.277,0,0,0,1.266-1.521,2.938,2.938,0,0,0-.041-2.181,2.443,2.443,0,0,0-1.669-1.466,2.319,2.319,0,0,0-1.252.188C69.5,114.555,67.915,115.634,68.211,117.387Z" transform="translate(-61.217 -92.274)" fill="#eae1bb"/>
        <path id="Path_962" data-name="Path 962" d="M80.387,121.993a.935.935,0,0,0,.218.8.674.674,0,0,0,.784.145.81.81,0,0,0,.352-.473,1.027,1.027,0,0,0-.077-.86C81.215,120.9,80.5,121.327,80.387,121.993Z" transform="translate(-69.999 -97.585)" fill="#c15d7c"/>
        <path id="Path_963" data-name="Path 963" d="M64.175,153.916a2.814,2.814,0,0,0,1.376,1.761,2.727,2.727,0,0,0,2.946-.4,3.277,3.277,0,0,0,1.153-1.608,2.94,2.94,0,0,0-.2-2.172,2.444,2.444,0,0,0-1.771-1.341,2.319,2.319,0,0,0-1.235.277C65.258,151,63.753,152.189,64.175,153.916Z" transform="translate(-58.284 -118.397)" fill="#eae1bb"/>
        <path id="Path_964" data-name="Path 964" d="M76.257,158.154a.934.934,0,0,0,.275.779.675.675,0,0,0,.792.088.813.813,0,0,0,.317-.5,1.028,1.028,0,0,0-.139-.852C77,157,76.322,157.481,76.257,158.154Z" transform="translate(-67.032 -123.584)" fill="#c15d7c"/>
        <path id="Path_965" data-name="Path 965" d="M66.682,61a2.813,2.813,0,0,0,1.717-1.43,2.728,2.728,0,0,0-.493-2.932,3.277,3.277,0,0,0-1.643-1.1A2.94,2.94,0,0,0,64.1,55.8a2.443,2.443,0,0,0-1.285,1.812,2.316,2.316,0,0,0,.316,1.225C63.732,60.011,64.969,61.478,66.682,61Z" transform="translate(-57.353 -50.209)" fill="#eae1bb"/>
        <path id="Path_966" data-name="Path 966" d="M70.759,59.853a.933.933,0,0,0,.77-.3.674.674,0,0,0,.064-.795.813.813,0,0,0-.507-.3,1.03,1.03,0,0,0-.848.166C69.583,59.143,70.084,59.81,70.759,59.853Z" transform="translate(-62.482 -52.362)" fill="#c15d7c"/>
        <path id="Path_967" data-name="Path 967" d="M56.706,96.626a2.815,2.815,0,0,0,1.717-1.43,2.727,2.727,0,0,0-.493-2.933,3.279,3.279,0,0,0-1.643-1.1,2.938,2.938,0,0,0-2.165.266,2.444,2.444,0,0,0-1.285,1.812,2.317,2.317,0,0,0,.316,1.226C53.756,95.634,54.993,97.1,56.706,96.626Z" transform="translate(-50.17 -75.858)" fill="#eae1bb"/>
        <path id="Path_968" data-name="Path 968" d="M60.783,95.477a.935.935,0,0,0,.77-.3.675.675,0,0,0,.064-.795.813.813,0,0,0-.507-.3,1.027,1.027,0,0,0-.848.166C59.607,94.767,60.108,95.433,60.783,95.477Z" transform="translate(-55.299 -78.011)" fill="#c15d7c"/>
        <path id="Path_969" data-name="Path 969" d="M50.291,134.468a2.813,2.813,0,0,0,1.6-1.556,2.728,2.728,0,0,0-.714-2.886,3.28,3.28,0,0,0-1.722-.974,2.939,2.939,0,0,0-2.139.43,2.443,2.443,0,0,0-1.144,1.9,2.317,2.317,0,0,0,.408,1.2C47.275,133.7,48.619,135.073,50.291,134.468Z" transform="translate(-45.377 -103.174)" fill="#eae1bb"/>
        <path id="Path_970" data-name="Path 970" d="M53.972,133.378a.933.933,0,0,0,.745-.357.675.675,0,0,0,0-.8.812.812,0,0,0-.528-.262,1.028,1.028,0,0,0-.833.23C52.745,132.759,53.3,133.386,53.972,133.378Z" transform="translate(-50.358 -105.297)" fill="#c15d7c"/>
        <path id="Path_971" data-name="Path 971" d="M47.543,173.291a2.813,2.813,0,0,0,1.55-1.611,2.728,2.728,0,0,0-.813-2.86,3.278,3.278,0,0,0-1.754-.914,2.94,2.94,0,0,0-2.123.5,2.444,2.444,0,0,0-1.078,1.943,2.316,2.316,0,0,0,.449,1.183C44.5,172.63,45.893,173.952,47.543,173.291Z" transform="translate(-43.323 -131.161)" fill="#eae1bb"/>
        <path id="Path_972" data-name="Path 972" d="M51.044,172.238a.934.934,0,0,0,.733-.382.675.675,0,0,0-.024-.8.813.813,0,0,0-.537-.244,1.029,1.029,0,0,0-.824.258C49.8,171.662,50.368,172.269,51.044,172.238Z" transform="translate(-48.233 -133.275)" fill="#c15d7c"/>
      </g>
      <g id="Group_727" data-name="Group 727" transform="translate(0 14.598)">
        <path id="Path_973" data-name="Path 973" d="M3.142,210.075a3.176,3.176,0,0,1-4.5.069c-12.75-12.226-18.356-31.552-13.879-48.675,2.876-11,9.476-20.88,11.318-32.1,2.508-15.268-5.255-31.55-18.275-39.736a.4.4,0,0,1,.369-.706C-3.06,96.911,9.866,116.2,8.541,136.76c-1.167,18.112-12.065,36.13-6.529,53.415,1.242,3.879,3.285,7.51,4.046,11.511C6.629,204.689,5.294,207.789,3.142,210.075Z" transform="translate(22.379 -88.894)" fill="#97cdf6"/>
        <path id="Path_974" data-name="Path 974" d="M-21.807,88.929a.4.4,0,0,0-.407.67A47.231,47.231,0,0,1,2.127,131.438c-.132,7.31-1.941,14.551-3.886,21.6L-5.128,134.7q-.357,1.228-.769,2.442l3.4,18.535-.015.055c-.519,1.857-1.056,3.777-1.556,5.667-2.486,9.393-4.626,20.387-1.65,30.711a28.446,28.446,0,0,0,8.366,13.288,25.052,25.052,0,0,0,2.462,1.921,10.581,10.581,0,0,0,.508-1.134A27.406,27.406,0,0,1-4.49,192.01l5.1-9.044c-.063-.74-.1-1.481-.122-2.224l-5.417,9.615c-2.323-9.635-.3-19.853,2.027-28.655.5-1.883,1.034-3.8,1.552-5.651,2.226-7.961,4.528-16.194,4.679-24.591A48.39,48.39,0,0,0-18.285,90.6Q-20.009,89.7-21.807,88.929Z" transform="translate(22.364 -88.894)" fill="#4b77c6"/>
      </g>
      <g id="Group_728" data-name="Group 728" transform="translate(18.384 8.752)">
        <path id="Path_975" data-name="Path 975" d="M67.19,68.51c-24.676,35.171-30.738,82.666-15.912,122.961a4.208,4.208,0,0,0,6.921,1.537,58.833,58.833,0,0,0,14.083-23.236c3.292-10.373,4.241-21.341,4.565-32.219.669-22.473-2.972-46.458-7.558-68.6A1.168,1.168,0,0,0,67.19,68.51Z" transform="translate(-43.28 -68.015)" fill="#c15d7c"/>
        <path id="Path_976" data-name="Path 976" d="M60.847,122.189q.742-5.275,1.621-10.671c3.052-18.682,6.707-34.311,8.915-43.043a1.181,1.181,0,0,0-.85-.45C68.774,74.969,66.067,86.4,63.48,100.3L60.174,84.091q-.343.677-.676,1.36l3.53,17.314q-.754,4.168-1.48,8.59c-2.17,13.278-3.7,26.032-4.586,38.055L46.7,128.347c-.072.569-.143,1.138-.207,1.707l10.336,21.216q-.274,4.018-.45,7.922a253.749,253.749,0,0,0,.669,35.018,4.224,4.224,0,0,0,.941.009q-.748-7.863-.925-16.491L77.589,156.71q.121-.785.23-1.572L57.04,176.415q-.125-8.265.271-17.174c.5-11.082,1.6-22.894,3.283-35.246L77.35,103.127c-.052-.431-.107-.861-.161-1.292Z" transform="translate(-45.593 -68.022)" fill="#e57fa3"/>
      </g>
      <g id="Group_731" data-name="Group 731" transform="translate(11.876 17.236)">
        <g id="Group_729" data-name="Group 729">
          <path id="Path_977" data-name="Path 977" d="M138.519,115.8a20.238,20.238,0,0,1,2.96-12.077c1.912-3.056,4.972-5.585,8.216-5.4,3.664.207,6.5,4.005,6.841,8.09s-1.378,8.227-3.842,11.418c-1.856,2.4-6.077,7.423-9.053,7.645C140.15,125.738,138.746,118.782,138.519,115.8Z" transform="translate(-105.305 -98.314)" fill="#2f0d6a"/>
          <path id="Path_978" data-name="Path 978" d="M150.862,215.118a20.237,20.237,0,0,1,8.33-9.232c3.132-1.784,7.025-2.562,9.794-.863,3.128,1.919,3.821,6.605,2.19,10.366s-5.112,6.591-8.794,8.233c-2.773,1.236-8.869,3.656-11.6,2.442C147.59,224.64,149.65,217.85,150.862,215.118Z" transform="translate(-112.951 -174.465)" fill="#2f0d6a"/>
          <path id="Path_979" data-name="Path 979" d="M142.891,305.351a20.24,20.24,0,0,1,8.28-9.277c3.122-1.8,7.011-2.6,9.789-.915,3.138,1.9,3.857,6.584,2.246,10.354s-5.076,6.619-8.75,8.281c-2.766,1.251-8.849,3.7-11.582,2.5C139.67,314.891,141.694,308.09,142.891,305.351Z" transform="translate(-107.24 -239.377)" fill="#2f0d6a"/>
          <path id="Path_980" data-name="Path 980" d="M80.78,150a20.238,20.238,0,0,0-4.171-11.714c-2.213-2.845-5.513-5.051-8.722-4.539-3.624.578-6.055,4.644-5.984,8.743s2.206,8.044,4.982,10.968c2.09,2.2,6.8,6.767,9.783,6.686C80.167,160.053,80.857,152.991,80.78,150Z" transform="translate(-50.18 -123.775)" fill="#2f0d6a"/>
          <path id="Path_981" data-name="Path 981" d="M54.549,244.254a20.236,20.236,0,0,0-6.691-10.481c-2.794-2.277-6.505-3.686-9.517-2.468-3.4,1.376-4.86,5.884-3.871,9.862s3.953,7.345,7.314,9.572c2.53,1.677,8.144,5.071,11.033,4.323C56.2,254.185,55.293,247.148,54.549,244.254Z" transform="translate(-30.21 -193.745)" fill="#2f0d6a"/>
          <path id="Path_982" data-name="Path 982" d="M41.7,343.166a20.236,20.236,0,0,0-9.848-7.592c-3.4-1.195-7.37-1.263-9.79.9-2.734,2.448-2.577,7.183-.3,10.591s6.209,5.569,10.126,6.526c2.949.72,9.38,2.009,11.845.326C46.629,351.948,43.387,345.637,41.7,343.166Z" transform="translate(-20.037 -268.547)" fill="#2f0d6a"/>
        </g>
        <path id="Path_983" data-name="Path 983" d="M113.943,132.29a.4.4,0,0,0-.552.144,111.38,111.38,0,0,0-12.976,34.617,28.52,28.52,0,0,0-1.905-6.671,39.066,39.066,0,0,0-2.683-5.4.4.4,0,1,0-.685.426c.055.088,5.453,8.86,4.543,15.726v0q-.822,5.11-1.2,10.319-.133,1.855-.206,3.713c-.006.122-.013.243-.015.364,0,.007,0,.014,0,.022q-.116,3.181-.061,6.367c-2.428-6.644-8.609-14.106-8.923-14.483a.4.4,0,1,0-.62.517c.091.109,9.141,11.032,9.678,17.979,0,.005,0,.01,0,.015a118.457,118.457,0,0,0,1.394,12.99c0,.02,0,.041.007.061s.006.026.01.04c.06.365.118.73.182,1.1q.394,2.269.882,4.528a38.579,38.579,0,0,0-6.073-7.684,63.121,63.121,0,0,0-6.116-5.45.4.4,0,1,0-.486.644c.115.087,11.509,8.769,13.64,16.8a.393.393,0,0,0,.076.145,124.036,124.036,0,0,0,7.33,20.809.4.4,0,1,0,.734-.334A121.911,121.911,0,0,1,100.729,210c-.069-.4-.134-.8-.2-1.2-.937-6.818,6.307-13.229,6.381-13.293a.4.4,0,0,0-.53-.608,25.032,25.032,0,0,0-3.714,4.262,17.339,17.339,0,0,0-2.7,5.778,117.519,117.519,0,0,1-.884-19.59c.227-6.53,7.758-13.34,7.835-13.408a.4.4,0,0,0-.538-.6,34.076,34.076,0,0,0-4.011,4.439,24.049,24.049,0,0,0-3.024,5.061,112.626,112.626,0,0,1,14.745-47.994A.4.4,0,0,0,113.943,132.29Z" transform="translate(-68.958 -122.737)" fill="#2f0d6a"/>
        <g id="Group_730" data-name="Group 730" transform="translate(0.096 0.218)">
          <path id="Path_984" data-name="Path 984" d="M163.607,114.774q.2-.417.38-.845l-11.266,5.254c.574-1.834,1.241-3.664,2-5.468a59.8,59.8,0,0,1,7.506-13.1c-.15-.138-.3-.27-.461-.394a58.742,58.742,0,0,0-5.656,9.052l.309-10.179q-.308.082-.611.192l-.343,11.295q-.684,1.428-1.3,2.9a61.65,61.65,0,0,0-3.648,11.972,3.024,3.024,0,0,0,.549.345,58.815,58.815,0,0,1,1.428-5.838Z" transform="translate(-114.074 -99.094)" fill="#422299"/>
          <path id="Path_985" data-name="Path 985" d="M167.081,221.712q.374-.272.734-.564l-12.41-.713c1.375-1.343,2.829-2.639,4.349-3.869a59.816,59.816,0,0,1,12.818-7.979c-.066-.192-.139-.381-.219-.565a58.752,58.752,0,0,0-9.27,5.291l5.1-8.817q-.31-.074-.629-.12l-5.655,9.783q-1.279.934-2.522,1.936a61.643,61.643,0,0,0-8.886,8.813,3.024,3.024,0,0,0,.32.564,58.728,58.728,0,0,1,4.024-4.464Z" transform="translate(-114.058 -174.898)" fill="#422299"/>
          <path id="Path_986" data-name="Path 986" d="M159.175,311.848q.373-.274.732-.568l-12.414-.646c1.367-1.35,2.815-2.654,4.328-3.893a59.819,59.819,0,0,1,12.774-8.048c-.067-.192-.141-.38-.222-.564a58.728,58.728,0,0,0-9.241,5.341l5.048-8.844q-.31-.072-.63-.117l-5.6,9.814q-1.274.94-2.511,1.95a61.654,61.654,0,0,0-8.838,8.861,3,3,0,0,0,.323.562,58.808,58.808,0,0,1,4-4.486Z" transform="translate(-108.378 -239.795)" fill="#422299"/>
          <path id="Path_987" data-name="Path 987" d="M69.236,150.3q-.241-.395-.463-.8l11.741,4.082c-.758-1.766-1.607-3.519-2.541-5.237a59.82,59.82,0,0,0-8.8-12.27c.135-.152.274-.3.418-.438a58.75,58.75,0,0,1,6.546,8.431L74.8,133.975q.315.05.627.129l1.489,11.2q.825,1.352,1.591,2.753A61.643,61.643,0,0,1,83.35,159.6a3,3,0,0,1-.511.4,58.815,58.815,0,0,0-2.014-5.663Z" transform="translate(-55.223 -124.209)" fill="#422299"/>
          <path id="Path_988" data-name="Path 988" d="M41.281,248.038q-.324-.331-.631-.677l12.358,1.346c-1.134-1.551-2.355-3.069-3.651-4.534a59.816,59.816,0,0,0-11.324-9.986c.1-.179.2-.353.309-.521a58.722,58.722,0,0,1,8.269,6.749l-3.57-9.537q.318-.022.64-.015l3.962,10.583q1.108,1.132,2.167,2.326a61.655,61.655,0,0,1,7.309,10.16,3.017,3.017,0,0,1-.409.5,58.851,58.851,0,0,0-3.232-5.067Z" transform="translate(-33.09 -193.967)" fill="#422299"/>
          <path id="Path_989" data-name="Path 989" d="M28.132,353.315q-.417-.2-.823-.423l12.082-2.923c-1.593-1.075-3.256-2.089-4.972-3.028a59.814,59.814,0,0,0-14.039-5.555c.031-.2.068-.4.115-.595a58.734,58.734,0,0,1,10.067,3.546l-6.592-7.762q.292-.128.6-.231l7.315,8.613q1.426.69,2.828,1.454a61.614,61.614,0,0,1,10.32,7.08,3,3,0,0,1-.214.612,58.8,58.8,0,0,0-4.758-3.671Z" transform="translate(-20.38 -269.915)" fill="#422299"/>
        </g>
      </g>
      <g id="Group_732" data-name="Group 732" transform="translate(42.019 48.575)">
        <path id="Path_990" data-name="Path 990" d="M135.845,296.923a2.228,2.228,0,0,1-3.063-.754,35.8,35.8,0,0,1-.744-35.49c3.91-6.948,10.147-12.475,13.395-19.756,4.421-9.91,2.055-22.337-5.319-30.209a.28.28,0,0,1,.376-.413c11.3,8.756,16.637,24.139,12.075,37.853-4.018,12.078-14.62,22.358-13.943,35.069.152,2.852.891,5.679.694,8.529A6.935,6.935,0,0,1,135.845,296.923Z" transform="translate(-127.692 -210.24)" fill="#eae1bb"/>
        <path id="Path_991" data-name="Path 991" d="M154.2,210.3a.278.278,0,0,0-.4.382,33.124,33.124,0,0,1,9.058,32.716c-1.392,4.935-3.908,9.525-6.484,13.958l.982-13.04q-.461.77-.957,1.52l-.993,13.179-.02.034c-.683,1.167-1.389,2.374-2.065,3.567-3.359,5.929-6.769,13-6.589,20.538a19.953,19.953,0,0,0,3.308,10.5,17.552,17.552,0,0,0,1.327,1.742,7.41,7.41,0,0,0,.547-.679,19.219,19.219,0,0,1-4.335-11.414l5.067-5.227q.134-.77.314-1.53l-5.387,5.557c.141-6.949,3.331-13.521,6.479-19.076.673-1.188,1.378-2.393,2.059-3.557,2.928-5,5.956-10.178,7.555-15.847a33.936,33.936,0,0,0-7.379-31.568Q155.279,211.142,154.2,210.3Z" transform="translate(-141.397 -210.24)" fill="#fefae4"/>
      </g>
      <g id="Group_733" data-name="Group 733" transform="translate(97.485 89.188)">
        <path id="Path_992" data-name="Path 992" d="M328.625,365.8c1.454-3.882,3.688-7.8,7.543-9.583,5.089-2.348,11.7,0,15.229,4.4s4.406,10.3,3.729,15.734A32.782,32.782,0,0,1,339.9,399.659c-3.957,2.475-8.74,3.448-11.141-1.558-2.206-4.6-2.847-10.387-2.96-15.343A45.474,45.474,0,0,1,328.625,365.8Z" transform="translate(-325.79 -355.293)" fill="#4b77c6"/>
        <path id="Path_993" data-name="Path 993" d="M357.786,385.768l-12.867,6.818a58.565,58.565,0,0,0,2.617-13.39,71.142,71.142,0,0,0-.186-12.028l5.458-9.954c-.233-.134-.47-.261-.71-.382l-4.891,8.92c-.363-3.392-.894-6.843-1.493-10.443-.271.006-.54.024-.809.049,1.38,8.271,2.394,15.732,1.844,23.516l-13.125-11.813c-.094.278-.188.556-.277.836l13.323,11.991a62.476,62.476,0,0,1-6.223,21.738,8.991,8.991,0,0,0,.984-.2,73.1,73.1,0,0,0,3.127-7.739l12.6-6.674C357.373,386.6,357.585,386.188,357.786,385.768Z" transform="translate(-331.23 -355.304)" fill="#97cdf6"/>
      </g>
      <g id="Group_736" data-name="Group 736" transform="translate(84.201 65.459)">
        <g id="Group_734" data-name="Group 734" transform="translate(0 2.514)">
          <path id="Path_994" data-name="Path 994" d="M278.763,341.176h-.015a.42.42,0,0,1-.4-.435c.815-22.921,10.124-45.187,25.541-61.091a.42.42,0,0,1,.6.585c-15.274,15.756-24.5,37.821-25.305,60.536A.42.42,0,0,1,278.763,341.176Z" transform="translate(-278.343 -279.523)" fill="#c15d7c"/>
        </g>
        <path id="Path_995" data-name="Path 995" d="M359.89,274.851a2.814,2.814,0,0,0,1.656,1.5,2.728,2.728,0,0,0,2.835-.9,3.28,3.28,0,0,0,.862-1.781,2.938,2.938,0,0,0-.566-2.106,2.444,2.444,0,0,0-1.974-1.02,2.318,2.318,0,0,0-1.169.484C360.46,271.792,359.18,273.222,359.89,274.851Z" transform="translate(-336.91 -270.543)" fill="#c15d7c"/>
        <path id="Path_996" data-name="Path 996" d="M340.263,313.617a2.812,2.812,0,0,0,.214,2.225,2.727,2.727,0,0,0,2.7,1.245,3.278,3.278,0,0,0,1.836-.737,2.939,2.939,0,0,0,1-1.939,2.443,2.443,0,0,0-.773-2.083,2.317,2.317,0,0,0-1.19-.429C342.744,311.739,340.835,311.934,340.263,313.617Z" transform="translate(-322.827 -300.287)" fill="#c15d7c"/>
        <path id="Path_997" data-name="Path 997" d="M321.328,341.731a2.814,2.814,0,0,0,.525,2.172,2.727,2.727,0,0,0,2.849.852,3.277,3.277,0,0,0,1.714-.988,2.939,2.939,0,0,0,.717-2.06,2.443,2.443,0,0,0-1.058-1.953,2.318,2.318,0,0,0-1.239-.257C323.521,339.522,321.658,339.984,321.328,341.731Z" transform="translate(-309.262 -320.189)" fill="#c15d7c"/>
        <path id="Path_998" data-name="Path 998" d="M304.831,374.549a2.812,2.812,0,0,0,.681,2.129,2.727,2.727,0,0,0,2.9.644,3.277,3.277,0,0,0,1.639-1.109,2.939,2.939,0,0,0,.566-2.106,2.443,2.443,0,0,0-1.2-1.872,2.319,2.319,0,0,0-1.254-.167C306.858,372.188,305.034,372.783,304.831,374.549Z" transform="translate(-297.403 -343.628)" fill="#c15d7c"/>
        <path id="Path_999" data-name="Path 999" d="M340.243,287.462a2.815,2.815,0,0,0,2.107-.747,2.727,2.727,0,0,0,.553-2.922,3.278,3.278,0,0,0-1.16-1.6,2.94,2.94,0,0,0-2.123-.5,2.444,2.444,0,0,0-1.833,1.255,2.32,2.32,0,0,0-.128,1.259C337.819,285.51,338.472,287.315,340.243,287.462Z" transform="translate(-321.028 -278.545)" fill="#c15d7c"/>
        <path id="Path_1000" data-name="Path 1000" d="M318.549,317.427a2.814,2.814,0,0,0,2.107-.747,2.727,2.727,0,0,0,.553-2.922,3.279,3.279,0,0,0-1.16-1.6,2.941,2.941,0,0,0-2.123-.5,2.444,2.444,0,0,0-1.833,1.255,2.319,2.319,0,0,0-.128,1.259C316.125,315.475,316.778,317.28,318.549,317.427Z" transform="translate(-305.408 -300.12)" fill="#c15d7c"/>
        <path id="Path_1001" data-name="Path 1001" d="M299.373,350.75a2.813,2.813,0,0,0,2.044-.9,2.727,2.727,0,0,0,.329-2.955,3.276,3.276,0,0,0-1.278-1.51,2.94,2.94,0,0,0-2.155-.337,2.445,2.445,0,0,0-1.733,1.39,2.321,2.321,0,0,0-.032,1.265C296.808,348.987,297.6,350.737,299.373,350.75Z" transform="translate(-291.399 -324.129)" fill="#c15d7c"/>
        <path id="Path_1002" data-name="Path 1002" d="M283.323,386.237a2.815,2.815,0,0,0,2.011-.974,2.728,2.728,0,0,0,.228-2.965,3.28,3.28,0,0,0-1.329-1.465,2.939,2.939,0,0,0-2.165-.263,2.442,2.442,0,0,0-1.684,1.449,2.318,2.318,0,0,0,.011,1.266C280.7,384.563,281.546,386.285,283.323,386.237Z" transform="translate(-279.752 -349.691)" fill="#c15d7c"/>
        <g id="Group_735" data-name="Group 735" transform="translate(2.696 1.884)">
          <path id="Path_1003" data-name="Path 1003" d="M371.565,278.194a.933.933,0,0,0,.4.721.674.674,0,0,0,.8-.048.811.811,0,0,0,.228-.544,1.029,1.029,0,0,0-.283-.816C372.1,276.93,371.514,277.52,371.565,278.194Z" transform="translate(-348.157 -277.273)" fill="#553d95"/>
          <path id="Path_1004" data-name="Path 1004" d="M351.925,320.7a.933.933,0,0,0-.187.8.674.674,0,0,0,.621.5.811.811,0,0,0,.534-.249,1.028,1.028,0,0,0,.341-.794C353.174,320.132,352.341,320.171,351.925,320.7Z" transform="translate(-333.864 -308.267)" fill="#553d95"/>
          <path id="Path_1005" data-name="Path 1005" d="M333.33,348.057a.934.934,0,0,0-.072.823.675.675,0,0,0,.685.408.812.812,0,0,0,.494-.322,1.028,1.028,0,0,0,.225-.834C334.486,347.315,333.667,347.471,333.33,348.057Z" transform="translate(-320.531 -327.886)" fill="#553d95"/>
          <path id="Path_1006" data-name="Path 1006" d="M316.951,380.526a.934.934,0,0,0-.012.826.674.674,0,0,0,.713.357.811.811,0,0,0,.47-.356,1.028,1.028,0,0,0,.164-.848C318.051,379.7,317.245,379.917,316.951,380.526Z" transform="translate(-308.763 -351.225)" fill="#553d95"/>
          <path id="Path_1007" data-name="Path 1007" d="M346.071,286.486a.934.934,0,0,0,.826-.014.675.675,0,0,0,.335-.724.81.81,0,0,0-.371-.458,1.027,1.027,0,0,0-.853-.138C345.214,285.413,345.453,286.211,346.071,286.486Z" transform="translate(-329.395 -282.916)" fill="#553d95"/>
          <path id="Path_1008" data-name="Path 1008" d="M324.377,316.451a.934.934,0,0,0,.826-.014.674.674,0,0,0,.335-.724.811.811,0,0,0-.371-.458,1.028,1.028,0,0,0-.852-.138C323.52,315.378,323.759,316.177,324.377,316.451Z" transform="translate(-313.775 -304.492)" fill="#553d95"/>
          <path id="Path_1009" data-name="Path 1009" d="M304.837,349.672a.934.934,0,0,0,.823-.077.674.674,0,0,0,.279-.747.811.811,0,0,0-.4-.429,1.028,1.028,0,0,0-.86-.073C303.9,348.667,304.2,349.445,304.837,349.672Z" transform="translate(-299.665 -328.401)" fill="#553d95"/>
          <path id="Path_1010" data-name="Path 1010" d="M288.62,385.125a.934.934,0,0,0,.82-.1.674.674,0,0,0,.253-.756.812.812,0,0,0-.419-.415,1.028,1.028,0,0,0-.862-.043C287.65,384.152,287.976,384.92,288.62,385.125Z" transform="translate(-287.97 -353.923)" fill="#553d95"/>
        </g>
      </g>
      <g id="Group_737" data-name="Group 737" transform="translate(52.717 59.4)">
        <path id="Path_1011" data-name="Path 1011" d="M194.766,249.1c-21.038,19.111-31.855,48.881-28.144,77.041a2.784,2.784,0,0,0,4.243,2,38.925,38.925,0,0,0,12.466-12.949c3.632-6.216,5.839-13.156,7.63-20.129,3.7-14.407,4.836-30.414,5.1-45.373A.773.773,0,0,0,194.766,249.1Z" transform="translate(-165.901 -248.903)" fill="#553d95"/>
        <path id="Path_1012" data-name="Path 1012" d="M187.943,282.569q1.245-3.3,2.6-6.651c4.686-11.613,9.317-21.168,12.011-26.482a.779.779,0,0,0-.483-.414c-2.145,4.225-5.553,11.206-9.245,19.807l.223-10.944q-.32.387-.634.779l-.239,11.688q-1.093,2.58-2.2,5.328c-3.331,8.254-6.175,16.262-8.492,23.892l-3.56-15.085q-.194.535-.382,1.072l3.586,15.195q-.761,2.553-1.442,5.047a167.857,167.857,0,0,0-4.659,22.7,2.787,2.787,0,0,0,.606.143q.66-5.183,1.8-10.777l16.3-10.581q.192-.489.377-.982l-16.5,10.711q1.121-5.352,2.672-11.044c1.931-7.08,4.358-14.543,7.242-22.269l13.847-11.032c.029-.286.056-.571.084-.857Z" transform="translate(-172.468 -248.989)" fill="#6858b7"/>
      </g>
      <g id="Group_738" data-name="Group 738" transform="translate(67.795 93.4)">
        <path id="Path_1013" data-name="Path 1013" d="M254.538,391.336a33.076,33.076,0,0,0-15.656-18.58c-4.717-2.516-10.921-3.694-15.147-.419a11.247,11.247,0,0,0-3.974,8.494,22.2,22.2,0,0,0,2.079,9.378,44.788,44.788,0,0,0,23.135,23.2c1.718.751,5.94,3.053,7.773,2.1,1.741-.9,2.391-5.532,2.742-7.244A33.035,33.035,0,0,0,254.538,391.336Z" transform="translate(-219.75 -370.335)" fill="#97cdf6"/>
        <path id="Path_1014" data-name="Path 1014" d="M227.012,392.124c-.091-.206-.184-.412-.272-.62-.062-.147-.123-.294-.183-.442l21.981,6.777q-2.162-3.683-4.48-7.266c-3.792-5.85-8.641-12.5-14.926-17.3a9,9,0,0,1,.813-.487,60.514,60.514,0,0,1,11.749,12.731l-2.853-13.388q.481.12.957.264l3.192,14.98c.627.918,1.23,1.827,1.807,2.718a194.542,194.542,0,0,1,12.2,21.773l4.058-8.044q-.032,1.117-.138,2.23l-3.44,6.82q.639,1.354,1.257,2.718a3.862,3.862,0,0,1-.588.834,194.156,194.156,0,0,0-8.946-17.461Z" transform="translate(-224.65 -371.63)" fill="#4b77c6"/>
      </g>
    </g>
  </g>
</svg>
