<svg xmlns="http://www.w3.org/2000/svg" xmlns:xlink="http://www.w3.org/1999/xlink" width="336" height="133.528" viewBox="0 0 336 133.528">
  <defs>
    <clipPath id="clip-path">
      <path id="Rectangle_943" data-name="Rectangle 943" d="M0,0H123.517a15,15,0,0,1,15,15V133.528a0,0,0,0,1,0,0H0a0,0,0,0,1,0,0V0A0,0,0,0,1,0,0Z" fill="#7480ff"/>
    </clipPath>
    <clipPath id="clip-path-2">
      <path id="Rectangle_945" data-name="Rectangle 945" d="M15,0H125.219a0,0,0,0,1,0,0V131.928a0,0,0,0,1,0,0H0a0,0,0,0,1,0,0V15A15,15,0,0,1,15,0Z" transform="translate(0 0)" fill="none"/>
    </clipPath>
  </defs>
  <g id="Group_6178" data-name="Group 6178" transform="translate(-624 -241.902)">
    <path id="Rectangle_970" data-name="Rectangle 970" d="M15,0H321a15,15,0,0,1,15,15V132a0,0,0,0,1,0,0H0a0,0,0,0,1,0,0V15A15,15,0,0,1,15,0Z" transform="translate(624 242.098)" fill="#ffc8c7"/>
    <g id="Group_723" data-name="Group 723" transform="translate(821.15 241.902)" clip-path="url(#clip-path)">
      <g id="Group_722" data-name="Group 722" transform="translate(5.767 -11.128)">
        <g id="Group_708" data-name="Group 708" transform="translate(97.896 69.201)">
          <g id="Group_705" data-name="Group 705" transform="translate(0 28.796)">
            <path id="Path_897" data-name="Path 897" d="M635.477,420.882a2.923,2.923,0,0,0-1.96-1.246,2.834,2.834,0,0,0-2.745,1.419,3.406,3.406,0,0,0-.569,1.975,3.055,3.055,0,0,0,.95,2.058,2.539,2.539,0,0,0,2.2.7,2.408,2.408,0,0,0,1.112-.7C635.432,424.115,636.491,422.426,635.477,420.882Z" transform="translate(-630.2 -384.403)" fill="#4b77c6"/>
            <path id="Path_898" data-name="Path 898" d="M647.684,381.159a2.924,2.924,0,0,0-.61-2.241,2.834,2.834,0,0,0-2.985-.8,3.4,3.4,0,0,0-1.751,1.078,3.053,3.053,0,0,0-.683,2.161,2.539,2.539,0,0,0,1.158,2,2.409,2.409,0,0,0,1.295.23C645.473,383.518,647.394,382.983,647.684,381.159Z" transform="translate(-638.316 -354.894)" fill="#4b77c6"/>
            <path id="Path_899" data-name="Path 899" d="M661.68,349.93a2.923,2.923,0,0,0-.92-2.132,2.834,2.834,0,0,0-3.068-.371,3.406,3.406,0,0,0-1.581,1.313,3.055,3.055,0,0,0-.372,2.236,2.54,2.54,0,0,0,1.428,1.814,2.406,2.406,0,0,0,1.314.045C659.824,352.577,661.65,351.776,661.68,349.93Z" transform="translate(-648.259 -333.018)" fill="#4b77c6"/>
            <path id="Path_900" data-name="Path 900" d="M672.424,314.578a2.924,2.924,0,0,0-1.071-2.06,2.834,2.834,0,0,0-3.086-.149,3.407,3.407,0,0,0-1.483,1.424,3.053,3.053,0,0,0-.209,2.257,2.539,2.539,0,0,0,1.555,1.706,2.409,2.409,0,0,0,1.314-.049C670.764,317.352,672.527,316.422,672.424,314.578Z" transform="translate(-655.903 -308.087)" fill="#4b77c6"/>
            <path id="Path_901" data-name="Path 901" d="M652.686,405.455a2.924,2.924,0,0,0-2.026,1.136,2.834,2.834,0,0,0-.052,3.089,3.406,3.406,0,0,0,1.47,1.437,3.053,3.053,0,0,0,2.262.138A2.539,2.539,0,0,0,656,409.649a2.411,2.411,0,0,0-.091-1.312C655.511,407.028,654.526,405.294,652.686,405.455Z" transform="translate(-644.363 -374.358)" fill="#4b77c6"/>
            <path id="Path_902" data-name="Path 902" d="M668.992,372.25a2.924,2.924,0,0,0-2.026,1.135,2.834,2.834,0,0,0-.052,3.089,3.408,3.408,0,0,0,1.47,1.437,3.054,3.054,0,0,0,2.262.138,2.539,2.539,0,0,0,1.657-1.607,2.407,2.407,0,0,0-.091-1.312C671.818,373.822,670.832,372.088,668.992,372.25Z" transform="translate(-655.926 -350.813)" fill="#4b77c6"/>
            <path id="Path_903" data-name="Path 903" d="M682.032,336.279a2.924,2.924,0,0,0-1.934,1.286,2.834,2.834,0,0,0,.183,3.084,3.405,3.405,0,0,0,1.575,1.322,3.054,3.054,0,0,0,2.266-.034,2.54,2.54,0,0,0,1.53-1.729,2.408,2.408,0,0,0-.19-1.3C684.969,337.632,683.855,335.979,682.032,336.279Z" transform="translate(-665.314 -325.289)" fill="#4b77c6"/>
            <path id="Path_904" data-name="Path 904" d="M691.747,298.643a2.923,2.923,0,0,0-1.888,1.352,2.834,2.834,0,0,0,.288,3.076,3.407,3.407,0,0,0,1.619,1.267,3.055,3.055,0,0,0,2.264-.112,2.539,2.539,0,0,0,1.469-1.78,2.408,2.408,0,0,0-.234-1.294C694.728,299.894,693.557,298.28,691.747,298.643Z" transform="translate(-672.266 -298.591)" fill="#4b77c6"/>
          </g>
          <g id="Group_706" data-name="Group 706" transform="translate(2.151)">
            <path id="Path_905" data-name="Path 905" d="M638.029,267.234a.437.437,0,0,1-.36-.683c12.869-18.822,18.432-43.041,15.262-66.444a.436.436,0,0,1,.865-.117c3.2,23.615-2.417,48.055-15.407,67.054A.437.437,0,0,1,638.029,267.234Z" transform="translate(-637.592 -199.612)" fill="#4b77c6"/>
          </g>
          <g id="Group_707" data-name="Group 707" transform="translate(0.853 32.34)">
            <path id="Path_906" data-name="Path 906" d="M634.621,429.4a.971.971,0,0,0-.54-.667.7.7,0,0,0-.807.189.844.844,0,0,0-.137.6,1.068,1.068,0,0,0,.433.786C634.292,430.789,634.792,430.082,634.621,429.4Z" transform="translate(-633.131 -394.377)" fill="#97cdf6"/>
            <path id="Path_907" data-name="Path 907" d="M646.668,384.294a.97.97,0,0,0,.05-.857.7.7,0,0,0-.724-.4.844.844,0,0,0-.5.349,1.068,1.068,0,0,0-.209.873C645.49,385.1,646.336,384.913,646.668,384.294Z" transform="translate(-641.729 -362.004)" fill="#97cdf6"/>
            <path id="Path_908" data-name="Path 908" d="M660.442,354.1a.971.971,0,0,0-.072-.856.7.7,0,0,0-.773-.3.844.844,0,0,0-.45.416,1.068,1.068,0,0,0-.084.893C659.388,355.066,660.2,354.762,660.442,354.1Z" transform="translate(-651.474 -340.659)" fill="#97cdf6"/>
            <path id="Path_909" data-name="Path 909" d="M671.119,319.3a.971.971,0,0,0-.133-.848.7.7,0,0,0-.793-.24.842.842,0,0,0-.418.447,1.068,1.068,0,0,0-.019.9C670.138,320.333,670.925,319.972,671.119,319.3Z" transform="translate(-659.037 -316.014)" fill="#97cdf6"/>
            <path id="Path_910" data-name="Path 910" d="M657.642,417.683a.971.971,0,0,0-.844.16.7.7,0,0,0-.216.8.842.842,0,0,0,.461.4,1.067,1.067,0,0,0,.9-.009C658.709,418.631,658.323,417.856,657.642,417.683Z" transform="translate(-649.724 -386.557)" fill="#97cdf6"/>
            <path id="Path_911" data-name="Path 911" d="M673.949,384.477a.971.971,0,0,0-.844.16.7.7,0,0,0-.216.8.843.843,0,0,0,.461.4,1.067,1.067,0,0,0,.9-.009C675.016,385.426,674.63,384.65,673.949,384.477Z" transform="translate(-661.286 -363.011)" fill="#97cdf6"/>
            <path id="Path_912" data-name="Path 912" d="M687.566,348.458a.972.972,0,0,0-.829.223.7.7,0,0,0-.154.814.842.842,0,0,0,.49.368,1.068,1.068,0,0,0,.894-.077C688.7,349.323,688.258,348.578,687.566,348.458Z" transform="translate(-670.982 -337.483)" fill="#97cdf6"/>
            <path id="Path_913" data-name="Path 913" d="M697.54,310.783a.971.971,0,0,0-.821.252.7.7,0,0,0-.126.819.844.844,0,0,0,.5.351,1.068,1.068,0,0,0,.891-.107C698.7,311.608,698.236,310.879,697.54,310.783Z" transform="translate(-678.072 -310.773)" fill="#97cdf6"/>
          </g>
        </g>
        <g id="Group_712" data-name="Group 712" transform="translate(0 13.063)">
          <g id="Group_709" data-name="Group 709" transform="translate(0 0.99)">
            <path id="Path_914" data-name="Path 914" d="M296.976,70.833a2.17,2.17,0,0,1,1.185,1.251,2.1,2.1,0,0,1-.644,2.2,2.53,2.53,0,0,1-1.358.695,2.268,2.268,0,0,1-1.634-.4,1.885,1.885,0,0,1-.82-1.5,1.785,1.785,0,0,1,.353-.909C294.627,71.325,295.708,70.313,296.976,70.833Z" transform="translate(-293.704 -53.05)" fill="#2f0d6a"/>
            <path id="Path_915" data-name="Path 915" d="M325.341,55.662a2.17,2.17,0,0,1,1.719.127,2.1,2.1,0,0,1,1.006,2.061,2.526,2.526,0,0,1-.536,1.428,2.266,2.266,0,0,1-1.477.8,1.886,1.886,0,0,1-1.619-.56,1.787,1.787,0,0,1-.351-.911C323.935,57.607,324.053,56.132,325.341,55.662Z" transform="translate(-315.209 -42.308)" fill="#2f0d6a"/>
            <path id="Path_916" data-name="Path 916" d="M345.92,41.144a2.169,2.169,0,0,1,1.684.367,2.1,2.1,0,0,1,.705,2.182,2.526,2.526,0,0,1-.732,1.339A2.266,2.266,0,0,1,346,45.62a1.883,1.883,0,0,1-1.524-.783,1.785,1.785,0,0,1-.22-.951C344.255,42.872,344.579,41.428,345.92,41.144Z" transform="translate(-329.55 -32.069)" fill="#2f0d6a"/>
            <path id="Path_917" data-name="Path 917" d="M370.008,28.359a2.17,2.17,0,0,1,1.653.488,2.1,2.1,0,0,1,.546,2.227,2.531,2.531,0,0,1-.827,1.282,2.267,2.267,0,0,1-1.614.472,1.884,1.884,0,0,1-1.463-.891,1.785,1.785,0,0,1-.15-.964C368.223,29.962,368.651,28.546,370.008,28.359Z" transform="translate(-346.487 -23.021)" fill="#2f0d6a"/>
            <path id="Path_918" data-name="Path 918" d="M306.023,56.169a2.169,2.169,0,0,1-.54,1.637,2.1,2.1,0,0,1-2.243.476,2.527,2.527,0,0,1-1.256-.867,2.266,2.266,0,0,1-.422-1.628,1.885,1.885,0,0,1,.936-1.435,1.789,1.789,0,0,1,.969-.12C304.477,54.335,305.879,54.806,306.023,56.169Z" transform="translate(-299.263 -41.368)" fill="#2f0d6a"/>
            <path id="Path_919" data-name="Path 919" d="M327.9,39.58a2.17,2.17,0,0,1-.54,1.637,2.1,2.1,0,0,1-2.243.476,2.527,2.527,0,0,1-1.255-.867,2.266,2.266,0,0,1-.422-1.628,1.884,1.884,0,0,1,.936-1.435,1.783,1.783,0,0,1,.969-.12C326.352,37.745,327.754,38.217,327.9,39.58Z" transform="translate(-314.774 -29.605)" fill="#2f0d6a"/>
            <path id="Path_920" data-name="Path 920" d="M352.307,24.812a2.169,2.169,0,0,1-.662,1.591,2.1,2.1,0,0,1-2.273.3,2.527,2.527,0,0,1-1.186-.959,2.269,2.269,0,0,1-.3-1.656,1.885,1.885,0,0,1,1.042-1.36,1.787,1.787,0,0,1,.975-.046C350.9,22.865,352.267,23.442,352.307,24.812Z" transform="translate(-332.092 -18.979)" fill="#2f0d6a"/>
            <path id="Path_921" data-name="Path 921" d="M378.372,12.322a2.171,2.171,0,0,1-.717,1.568,2.1,2.1,0,0,1-2.282.226,2.526,2.526,0,0,1-1.152-1,2.265,2.265,0,0,1-.24-1.665,1.885,1.885,0,0,1,1.088-1.323,1.787,1.787,0,0,1,.976-.013C377.037,10.328,378.379,10.952,378.372,12.322Z" transform="translate(-350.581 -10.054)" fill="#2f0d6a"/>
          </g>
          <g id="Group_710" data-name="Group 710" transform="translate(1.898 0)">
            <path id="Path_922" data-name="Path 922" d="M300.591,28.018a.364.364,0,0,1-.259-.619A72.031,72.031,0,0,1,347.016,6.651a.367.367,0,0,1,.384.342.364.364,0,0,1-.342.384A71.294,71.294,0,0,0,300.85,27.91.362.362,0,0,1,300.591,28.018Z" transform="translate(-300.228 -6.651)" fill="#2f0d6a"/>
          </g>
          <g id="Group_711" data-name="Group 711" transform="translate(1.467 2.656)">
            <path id="Path_923" data-name="Path 923" d="M330.659,64.27a.719.719,0,0,1,.617-.158.521.521,0,0,1,.4.47.626.626,0,0,1-.183.416.792.792,0,0,1-.606.276C330.24,65.243,330.256,64.6,330.659,64.27Z" transform="translate(-321.174 -50.038)" fill="#e57fa3"/>
            <path id="Path_924" data-name="Path 924" d="M350.648,50.021a.719.719,0,0,1,.633-.069.52.52,0,0,1,.326.521.627.627,0,0,1-.239.386.793.793,0,0,1-.639.188C350.1,50.924,350.2,50.29,350.648,50.021Z" transform="translate(-335.291 -39.978)" fill="#e57fa3"/>
            <path id="Path_925" data-name="Path 925" d="M374.468,37.332a.721.721,0,0,1,.637-.023.521.521,0,0,1,.288.543.625.625,0,0,1-.267.368.793.793,0,0,1-.651.141C373.852,38.194,374,37.569,374.468,37.332Z" transform="translate(-352.151 -31)" fill="#e57fa3"/>
            <path id="Path_926" data-name="Path 926" d="M327.072,43.927a.72.72,0,0,1,0,.637.521.521,0,0,1-.552.271.628.628,0,0,1-.36-.278.793.793,0,0,1-.121-.655C326.23,43.284,326.85,43.455,327.072,43.927Z" transform="translate(-318.083 -35.437)" fill="#e57fa3"/>
            <path id="Path_927" data-name="Path 927" d="M351.4,28.882a.719.719,0,0,1-.045.636.52.52,0,0,1-.571.228.625.625,0,0,1-.337-.3.793.793,0,0,1-.071-.662C350.608,28.177,351.213,28.395,351.4,28.882Z" transform="translate(-335.324 -24.738)" fill="#e57fa3"/>
            <path id="Path_928" data-name="Path 928" d="M377.436,16.267a.72.72,0,0,1-.067.634.52.52,0,0,1-.578.208.626.626,0,0,1-.327-.316.794.794,0,0,1-.048-.664C376.669,15.536,377.267,15.774,377.436,16.267Z" transform="translate(-353.783 -15.779)" fill="#e57fa3"/>
            <path id="Path_929" data-name="Path 929" d="M299.447,79.541a.72.72,0,0,1,.563.3.52.52,0,0,1-.024.614.626.626,0,0,1-.415.185.793.793,0,0,1-.634-.2C298.482,79.978,298.926,79.513,299.447,79.541Z" transform="translate(-298.748 -60.99)" fill="#e57fa3"/>
            <path id="Path_930" data-name="Path 930" d="M305.2,60.516a.72.72,0,0,1,0,.637.52.52,0,0,1-.552.271.625.625,0,0,1-.36-.278.792.792,0,0,1-.121-.655C304.355,59.873,304.975,60.044,305.2,60.516Z" transform="translate(-302.572 -47.2)" fill="#e57fa3"/>
          </g>
        </g>
        <g id="Group_713" data-name="Group 713" transform="translate(76.094 2.167)">
          <path id="Path_931" data-name="Path 931" d="M596.54-29.5a3.3,3.3,0,0,0-4.631-.628C577.243-19.1,569.066.148,571.566,18.368c1.606,11.7,7.191,22.714,7.7,34.515.7,16.061-9.327,31.9-23.773,38.731a.415.415,0,0,0,.294.774c20.343-5.911,36.065-24.207,37.244-45.586,1.038-18.83-7.974-38.767-.123-55.914,1.762-3.848,4.319-7.341,5.6-11.375C599.471-23.514,598.478-26.877,596.54-29.5Z" transform="translate(-555.259 30.804)" fill="#eae1bb"/>
          <path id="Path_932" data-name="Path 932" d="M595.453-14.035a26.033,26.033,0,0,1,2.777-1.677,10.924,10.924,0,0,1,.384,1.233A28.479,28.479,0,0,0,586.427-1.111l4.137,9.961q-.235,1.134-.4,2.279L585.765.539c-3.589,9.652-2.77,20.444-1.456,29.813.281,2,.6,4.047.9,6.023,1.311,8.489,2.666,17.267,1.783,25.948a50.28,50.28,0,0,1-27.352,39.482q-1.889.714-3.839,1.284a.412.412,0,0,1-.337-.742A49.076,49.076,0,0,0,585.757,62.2c.768-7.558-.2-15.252-1.336-22.763l-5.745,18.5c-.144-.875-.31-1.746-.492-2.615l5.806-18.7-.009-.058c-.306-1.98-.622-4.027-.9-6.039-1.4-10-2.249-21.6,2.1-31.887a29.558,29.558,0,0,1,10.276-12.673" transform="translate(-555.272 20.103)" fill="#fefae4"/>
        </g>
        <g id="Group_714" data-name="Group 714" transform="translate(106.205 4.586)">
          <path id="Path_933" data-name="Path 933" d="M675.495,102.854c-20.937-37.14-22.289-84.633-3.717-122.979a4.176,4.176,0,0,1,6.985-.842A58.381,58.381,0,0,1,690.4,3.353c2.239,10.564,2.106,21.489,1.364,32.262-1.532,22.258-7.467,45.588-14.157,67.01A1.159,1.159,0,0,1,675.495,102.854Z" transform="translate(-658.759 22.49)" fill="#7480ff"/>
          <path id="Path_934" data-name="Path 934" d="M672.224,49.012q.217,5.281.559,10.7c1.191,18.747,3.276,34.537,4.6,43.376a1.17,1.17,0,0,1-.883.361c-1.06-7.029-2.618-18.577-3.816-32.565l-4.847,15.688c-.182-.468-.359-.938-.535-1.408l5.176-16.754q-.339-4.189-.624-8.627c-.847-13.324-1.118-26.069-.816-38.028l-12.188,19.8c-.016-.568-.03-1.137-.038-1.706L671.093,19.9q.121-3.994.328-7.867A251.855,251.855,0,0,1,675.5-22.483a4.185,4.185,0,0,1,.93.083q-1.505,7.691-2.522,16.195l18.219,22.759q.043.787.074,1.576L673.755-4.91q-.929,8.15-1.408,16.986c-.592,10.992-.658,22.764-.2,35.126l14.511,22.243c-.094.42-.19.84-.285,1.26Z" transform="translate(-658.8 22.485)" fill="#422299"/>
        </g>
        <g id="Group_717" data-name="Group 717" transform="translate(52.623 5.119)">
          <g id="Group_715" data-name="Group 715" transform="translate(0 33.717)">
            <path id="Path_935" data-name="Path 935" d="M493.909,264.456a19.014,19.014,0,0,1-6.621,9.625c-2.7,2.048-6.227,3.251-9.016,2.01-3.15-1.4-4.373-5.681-3.317-9.385a15.931,15.931,0,0,1,7.177-8.751c2.43-1.493,7.81-4.5,10.5-3.7C495.783,255.185,494.7,261.763,493.909,264.456Z" transform="translate(-474.584 -207.897)" fill="#ff9391"/>
            <path id="Path_936" data-name="Path 936" d="M503.529,186.572a19.012,19.012,0,0,1-10.391,5.338c-3.345.525-7.024-.088-8.891-2.5-2.109-2.727-1.158-7.075,1.527-9.836a15.93,15.93,0,0,1,10.467-4.305c2.847-.163,9.009-.26,11,1.715C509.573,179.3,505.5,184.576,503.529,186.572Z" transform="translate(-480.618 -151.929)" fill="#ff9391"/>
            <path id="Path_937" data-name="Path 937" d="M539.321,112.757a19.014,19.014,0,0,1-10.363,5.394c-3.343.543-7.024-.05-8.9-2.455-2.124-2.716-1.2-7.068,1.474-9.844a15.93,15.93,0,0,1,10.443-4.362c2.846-.179,9.007-.308,11.009,1.656C545.326,105.449,541.284,110.75,539.321,112.757Z" transform="translate(-505.995 -99.605)" fill="#c15d7c"/>
            <path id="Path_938" data-name="Path 938" d="M556.365,247.545a19.011,19.011,0,0,0-.236,11.68c1,3.236,3.162,6.273,6.151,6.891,3.376.7,6.865-2.064,8.168-5.689a15.93,15.93,0,0,0-.725-11.294c-1.1-2.63-3.72-8.209-6.368-9.131C560.25,238.921,557.292,244.9,556.365,247.545Z" transform="translate(-531.834 -197.795)" fill="#c15d7c"/>
            <path id="Path_939" data-name="Path 939" d="M605.326,178.321a19.013,19.013,0,0,0,2.389,11.435c1.7,2.931,4.488,5.4,7.539,5.337,3.447-.076,6.228-3.551,6.685-7.375a15.93,15.93,0,0,0-3.239-10.844c-1.664-2.316-5.466-7.166-8.253-7.471C607.178,169.045,605.636,175.53,605.326,178.321Z" transform="translate(-567.211 -147.816)" fill="#ff9391"/>
            <path id="Path_940" data-name="Path 940" d="M639.85,105.452a19.013,19.013,0,0,0,6.124,9.948c2.59,2.182,6.054,3.563,8.9,2.464,3.217-1.241,4.655-5.452,3.788-9.2a15.931,15.931,0,0,0-6.723-9.1c-2.351-1.614-7.572-4.888-10.3-4.23C638.448,96.1,639.2,102.722,639.85,105.452Z" transform="translate(-591.362 -95.24)" fill="#c15d7c"/>
          </g>
          <path id="Path_941" data-name="Path 941" d="M496.179,72.673a.379.379,0,0,0,.533.057,104.643,104.643,0,0,0,22.924-26.091,26.8,26.8,0,0,0-.548,6.495,36.682,36.682,0,0,0,.56,5.636.379.379,0,0,0,.744-.147c-.019-.1-1.841-9.6,1.244-15.328v0q2.424-4.216,4.49-8.666.734-1.585,1.417-3.194c.046-.1.093-.209.134-.314,0-.006,0-.013.006-.02q1.161-2.756,2.174-5.573c-.079,6.645,2.866,15.258,3.017,15.694a.379.379,0,1,0,.716-.248c-.044-.127-4.358-12.735-2.517-19.017,0,0,0-.009,0-.014a111.342,111.342,0,0,0,3.1-11.875c0-.019.01-.037.014-.056s0-.025,0-.038c.069-.341.139-.681.2-1.023q.409-2.125.733-4.272a36.234,36.234,0,0,0,2.776,8.772,59.18,59.18,0,0,0,3.558,6.824.379.379,0,1,0,.641-.4c-.072-.115-7.191-11.536-6.39-19.3A.37.37,0,0,0,535.7.42a116.552,116.552,0,0,0,.488-20.721.379.379,0,0,0-.244-.33.38.38,0,0,0-.159-.024.379.379,0,0,0-.354.4,114.54,114.54,0,0,1-1.775,29.059c-.072.374-.149.746-.224,1.119-1.447,6.3-9.945,9.522-10.031,9.554a.379.379,0,0,0,.263.711,23.537,23.537,0,0,0,4.681-2.508,16.28,16.28,0,0,0,4.3-4.176,110.372,110.372,0,0,1-5.745,17.5c-2.373,5.661-11.256,9.136-11.347,9.171a.379.379,0,0,0,.272.707,32.024,32.024,0,0,0,5-2.565,22.6,22.6,0,0,0,4.342-3.44A105.811,105.811,0,0,1,496.236,72.14.379.379,0,0,0,496.179,72.673Z" transform="translate(-489.837 20.656)" fill="#c15d7c"/>
          <g id="Group_716" data-name="Group 716" transform="translate(0.878 34.38)">
            <path id="Path_942" data-name="Path 942" d="M481.1,262.242q-.315.3-.615.616l11.646-.865c-1.115,1.42-2.31,2.806-3.574,4.139a56.2,56.2,0,0,1-10.955,9.01c.085.171.176.338.273.5a55.176,55.176,0,0,0,7.982-6.07l-3.66,8.839q.3.031.6.034l4.062-9.808q1.076-1.027,2.11-2.114a57.913,57.913,0,0,0,7.191-9.3,2.836,2.836,0,0,0-.367-.486,55.248,55.248,0,0,1-3.2,4.653Z" transform="translate(-477.601 -210.414)" fill="#e57fa3"/>
            <path id="Path_943" data-name="Path 943" d="M492.3,177.655q-.42.115-.833.251l10.665,4.758c-1.655.722-3.364,1.376-5.109,1.952a56.207,56.207,0,0,1-13.917,2.742c-.005.191,0,.381,0,.569a55.186,55.186,0,0,0,9.9-1.562l-7.412,6.049q.248.168.513.315l8.225-6.712q1.435-.394,2.86-.862a57.9,57.9,0,0,0,10.74-4.784,2.82,2.82,0,0,0-.094-.6,55.243,55.243,0,0,1-5.021,2.582Z" transform="translate(-481.499 -154.341)" fill="#e57fa3"/>
            <path id="Path_944" data-name="Path 944" d="M528.031,103.99q-.419.117-.832.255l10.691,4.7c-1.651.731-3.356,1.394-5.1,1.979a56.2,56.2,0,0,1-13.9,2.818c0,.191,0,.381.008.569a55.2,55.2,0,0,0,9.9-1.616l-7.379,6.089q.249.167.514.312l8.188-6.756q1.432-.4,2.855-.877a57.9,57.9,0,0,0,10.715-4.842,2.84,2.84,0,0,0-.1-.6,55.21,55.21,0,0,1-5.008,2.609Z" transform="translate(-506.876 -102.107)" fill="#e57fa3"/>
            <path id="Path_945" data-name="Path 945" d="M582.4,253.068q.081.427.14.859l-8.956-7.5c.077,1.8.24,3.626.489,5.447a56.211,56.211,0,0,0,3.644,13.709c-.169.089-.34.172-.514.246a55.189,55.189,0,0,1-2.943-9.586l-2.182,9.315q-.26-.149-.508-.322l2.421-10.336c-.183-.975-.345-1.958-.481-2.948a57.882,57.882,0,0,1-.415-11.75,2.8,2.8,0,0,1,.582-.18,55.257,55.257,0,0,0-.116,5.645Z" transform="translate(-544.233 -198.565)" fill="#e57fa3"/>
            <path id="Path_946" data-name="Path 946" d="M629.263,180.831q.174.4.329.805l-10.408-5.3c.48,1.741,1.047,3.48,1.7,5.2a56.2,56.2,0,0,0,6.624,12.543c-.145.125-.293.243-.445.354a55.165,55.165,0,0,1-5.017-8.682L622,195.32q-.286-.087-.567-.2l.043-10.616q-.6-1.363-1.13-2.765a57.914,57.914,0,0,1-3.038-11.358,2.826,2.826,0,0,1,.527-.306,55.2,55.2,0,0,0,1.152,5.527Z" transform="translate(-576.665 -148.966)" fill="#e57fa3"/>
            <path id="Path_947" data-name="Path 947" d="M657.241,103.762q.3.315.583.646l-11.587-1.455c1.042,1.475,2.165,2.919,3.359,4.315a56.214,56.214,0,0,0,10.484,9.554c-.094.166-.193.328-.3.484a55.152,55.152,0,0,1-7.664-6.466l3.207,9.013q-.3.016-.6,0l-3.559-10q-1.022-1.081-2-2.218a57.9,57.9,0,0,1-6.71-9.656,2.857,2.857,0,0,1,.392-.466,55.242,55.242,0,0,0,2.958,4.81Z" transform="translate(-594.494 -97.517)" fill="#e57fa3"/>
          </g>
        </g>
        <g id="Group_718" data-name="Group 718" transform="translate(50.583 1.268)">
          <path id="Path_948" data-name="Path 948" d="M496.622-33.717a2.315,2.315,0,0,1,3.017,1.282A37.193,37.193,0,0,1,494.509,4.09C489.345,10.567,482.03,15.2,477.49,22.13c-6.179,9.43-5.816,22.57.44,31.868a.291.291,0,0,1-.454.361c-10.142-10.858-13.057-27.522-6.1-40.83C477.5,1.807,490.082-6.977,491.5-20.127c.318-2.951.029-5.973.7-8.863A7.205,7.205,0,0,1,496.622-33.717Z" transform="translate(-467.574 33.892)" fill="#422299"/>
          <path id="Path_949" data-name="Path 949" d="M483.62,57.856a.289.289,0,0,0,.469-.326,34.417,34.417,0,0,1-3.86-35.061c2.247-4.831,5.59-9.121,8.967-13.241l-3.172,13.213q.6-.713,1.234-1.4l3.206-13.353.026-.032c.894-1.084,1.819-2.2,2.711-3.316,4.43-5.523,9.1-12.215,10.168-19.972a20.729,20.729,0,0,0-1.649-11.323,18.322,18.322,0,0,0-1.072-2.007,7.682,7.682,0,0,0-.674.606,19.97,19.97,0,0,1,2.552,12.427l-6.065,4.52q-.265.767-.576,1.517l6.448-4.805c-1.3,7.1-5.661,13.315-9.813,18.491-.888,1.107-1.811,2.225-2.7,3.307-3.834,4.646-7.8,9.451-10.379,15a35.263,35.263,0,0,0,2.328,33.6Q482.649,56.814,483.62,57.856Z" transform="translate(-473.718 30.396)" fill="#2f0d6a"/>
        </g>
        <g id="Group_719" data-name="Group 719" transform="translate(33.028)">
          <path id="Path_950" data-name="Path 950" d="M408.42,35.764c22.725-15.98,36.83-43.54,36.651-71.3a2.721,2.721,0,0,0-3.873-2.453,38.04,38.04,0,0,0-13.663,11.045c-4.278,5.587-7.261,12.051-9.844,18.6-5.336,13.523-8.383,28.91-10.451,43.387A.755.755,0,0,0,408.42,35.764Z" transform="translate(-407.232 38.251)" fill="#eae1bb"/>
          <path id="Path_951" data-name="Path 951" d="M425.546,5.213q-1.608,3.046-3.326,6.135c-5.954,10.694-11.606,19.4-14.864,24.226a.762.762,0,0,0,.418.46c2.593-3.838,6.746-10.194,11.371-18.087L417.6,28.534q.357-.337.71-.679l1.65-11.306q1.373-2.369,2.785-4.9c4.232-7.6,7.964-15.022,11.137-22.141L435.5,4.57q.253-.495.5-.993L434.369-11.6q1.048-2.384,2.012-4.72a164.14,164.14,0,0,0,7.275-21.447,2.741,2.741,0,0,0-.57-.212q-1.27,4.947-3.055,10.234l-17.1,8.282q-.246.451-.485.906l17.306-8.385q-1.737,5.054-3.932,10.387c-2.732,6.632-5.993,13.575-9.728,20.718l-14.77,9.018c-.063.273-.124.547-.185.821Z" transform="translate(-407.319 38.055)" fill="#fefae4"/>
        </g>
        <g id="Group_720" data-name="Group 720" transform="translate(18.918 6.629)">
          <path id="Path_952" data-name="Path 952" d="M383.894,22.062c-2.732,3.33-6.243,6.438-10.632,6.895-5.792.6-11.5-3.924-13.5-9.432s-.88-11.605,1.608-16.724a34.063,34.063,0,0,1,22.786-17.817c4.721-1.108,9.751-.46,10.435,5.268.628,5.262-.683,11.17-2.234,16.082A47.259,47.259,0,0,1,383.894,22.062Z" transform="translate(-358.732 15.467)" fill="#4b77c6"/>
          <path id="Path_953" data-name="Path 953" d="M376.634-5.436l14.941-2.391a60.844,60.844,0,0,0-7.063,12.292,73.928,73.928,0,0,0-3.85,11.892l-8.7,7.959c.184.21.375.414.57.614l7.8-7.133c-.78,3.458-1.415,7.029-2.032,10.771.268.085.539.158.812.223,1.416-8.6,2.92-16.275,6.07-23.745l8.947,16.018c.186-.241.371-.484.552-.729L385.6,4.075A64.919,64.919,0,0,1,399-15.218a9.342,9.342,0,0,0-1.034-.137,75.989,75.989,0,0,0-5.67,6.563L377.674-6.451C377.321-6.119,376.972-5.783,376.634-5.436Z" transform="translate(-368.109 15.388)" fill="#97cdf6"/>
        </g>
        <g id="Group_721" data-name="Group 721" transform="translate(82.71 5.544)">
          <path id="Path_954" data-name="Path 954" d="M612.559,3.353c2.008,3.811,3.507,8.254,2.223,12.475C613.087,21.4,606.7,24.9,600.844,24.6s-11.035-3.7-14.786-7.98a34.063,34.063,0,0,1-7.564-27.918c.813-4.78,3.365-9.164,8.908-7.568,5.093,1.466,10.027,4.968,13.951,8.307A47.255,47.255,0,0,1,612.559,3.353Z" transform="translate(-578.003 19.196)" fill="#97cdf6"/>
          <path id="Path_955" data-name="Path 955" d="M585.147,14.677l3.6-14.7a60.854,60.854,0,0,0,8.582,11.284,73.914,73.914,0,0,0,9.462,8.167l3.952,11.114c.265-.088.527-.185.787-.287l-3.542-9.96c2.883,2.063,5.928,4.035,9.136,6.058.182-.214.355-.436.521-.662-7.372-4.645-13.862-9.014-19.521-14.819L616.36,8.855c-.15-.265-.3-.53-.457-.792l-18.511,2.052a64.919,64.919,0,0,1-12.568-19.85,9.288,9.288,0,0,0-.528.9,75.906,75.906,0,0,0,3.844,7.774l-3.525,14.386C584.784,13.779,584.959,14.231,585.147,14.677Z" transform="translate(-582.466 12.488)" fill="#4b77c6"/>
        </g>
      </g>
    </g>
    <g id="Group_740" data-name="Group 740" transform="translate(624 242.17)" clip-path="url(#clip-path-2)">
      <g id="Group_739" data-name="Group 739" transform="translate(-6.266 2.222)">
        <g id="Group_726" data-name="Group 726" transform="translate(18.396)">
          <g id="Group_725" data-name="Group 725" transform="translate(5.554 2.467)">
            <path id="Path_956" data-name="Path 956" d="M68.29,112.26a.42.42,0,0,1-.4-.289c-7.172-21.785-6.149-45.9,2.808-66.155a.42.42,0,1,1,.768.34c-8.873,20.07-9.886,43.963-2.778,65.553a.42.42,0,0,1-.4.551Z" transform="translate(-63.161 -45.566)" fill="#eae1bb"/>
          </g>
          <path id="Path_957" data-name="Path 957" d="M81.839,41.923a2.812,2.812,0,0,0,2.073.835,2.728,2.728,0,0,0,2.349-1.824,3.278,3.278,0,0,0,.192-1.969,2.939,2.939,0,0,0-1.261-1.78,2.443,2.443,0,0,0-2.2-.273,2.316,2.316,0,0,0-.929.859C81.314,38.855,80.609,40.64,81.839,41.923Z" transform="translate(-70.573 -36.756)" fill="#eae1bb"/>
          <path id="Path_958" data-name="Path 958" d="M91.917,43.427a.934.934,0,0,0,.629.536.675.675,0,0,0,.73-.321.812.812,0,0,0,.025-.589,1.029,1.029,0,0,0-.548-.668C91.985,42.054,91.635,42.812,91.917,43.427Z" transform="translate(-78.241 -40.751)" fill="#c15d7c"/>
          <path id="Path_959" data-name="Path 959" d="M76.136,84.535a2.815,2.815,0,0,0,.971,2.013,2.727,2.727,0,0,0,2.964.233,3.28,3.28,0,0,0,1.468-1.327,2.939,2.939,0,0,0,.267-2.165A2.444,2.444,0,0,0,80.36,81.6a2.318,2.318,0,0,0-1.266.01C77.813,81.914,76.09,82.758,76.136,84.535Z" transform="translate(-66.948 -68.985)" fill="#eae1bb"/>
          <path id="Path_960" data-name="Path 960" d="M88.366,89.841a.935.935,0,0,0,.1.82.674.674,0,0,0,.756.254.811.811,0,0,0,.415-.418,1.028,1.028,0,0,0,.045-.862C89.34,88.873,88.572,89.2,88.366,89.841Z" transform="translate(-75.719 -74.51)" fill="#c15d7c"/>
          <path id="Path_961" data-name="Path 961" d="M68.211,117.387a2.813,2.813,0,0,0,1.245,1.856,2.727,2.727,0,0,0,2.968-.187,3.277,3.277,0,0,0,1.266-1.521,2.938,2.938,0,0,0-.041-2.181,2.443,2.443,0,0,0-1.669-1.466,2.319,2.319,0,0,0-1.252.188C69.5,114.555,67.915,115.634,68.211,117.387Z" transform="translate(-61.217 -92.274)" fill="#eae1bb"/>
          <path id="Path_962" data-name="Path 962" d="M80.387,121.993a.935.935,0,0,0,.218.8.674.674,0,0,0,.784.145.81.81,0,0,0,.352-.473,1.027,1.027,0,0,0-.077-.86C81.215,120.9,80.5,121.327,80.387,121.993Z" transform="translate(-69.999 -97.585)" fill="#c15d7c"/>
          <path id="Path_963" data-name="Path 963" d="M64.175,153.916a2.814,2.814,0,0,0,1.376,1.761,2.727,2.727,0,0,0,2.946-.4,3.277,3.277,0,0,0,1.153-1.608,2.94,2.94,0,0,0-.2-2.172,2.444,2.444,0,0,0-1.771-1.341,2.319,2.319,0,0,0-1.235.277C65.258,151,63.753,152.189,64.175,153.916Z" transform="translate(-58.284 -118.397)" fill="#eae1bb"/>
          <path id="Path_964" data-name="Path 964" d="M76.257,158.154a.934.934,0,0,0,.275.779.675.675,0,0,0,.792.088.813.813,0,0,0,.317-.5,1.028,1.028,0,0,0-.139-.852C77,157,76.322,157.481,76.257,158.154Z" transform="translate(-67.032 -123.584)" fill="#c15d7c"/>
          <path id="Path_965" data-name="Path 965" d="M66.682,61a2.813,2.813,0,0,0,1.717-1.43,2.728,2.728,0,0,0-.493-2.932,3.277,3.277,0,0,0-1.643-1.1A2.94,2.94,0,0,0,64.1,55.8a2.443,2.443,0,0,0-1.285,1.812,2.316,2.316,0,0,0,.316,1.225C63.732,60.011,64.969,61.478,66.682,61Z" transform="translate(-57.353 -50.209)" fill="#eae1bb"/>
          <path id="Path_966" data-name="Path 966" d="M70.759,59.853a.933.933,0,0,0,.77-.3.674.674,0,0,0,.064-.795.813.813,0,0,0-.507-.3,1.03,1.03,0,0,0-.848.166C69.583,59.143,70.084,59.81,70.759,59.853Z" transform="translate(-62.482 -52.362)" fill="#c15d7c"/>
          <path id="Path_967" data-name="Path 967" d="M56.706,96.626a2.815,2.815,0,0,0,1.717-1.43,2.727,2.727,0,0,0-.493-2.933,3.279,3.279,0,0,0-1.643-1.1,2.938,2.938,0,0,0-2.165.266,2.444,2.444,0,0,0-1.285,1.812,2.317,2.317,0,0,0,.316,1.226C53.756,95.634,54.993,97.1,56.706,96.626Z" transform="translate(-50.17 -75.858)" fill="#eae1bb"/>
          <path id="Path_968" data-name="Path 968" d="M60.783,95.477a.935.935,0,0,0,.77-.3.675.675,0,0,0,.064-.795.813.813,0,0,0-.507-.3,1.027,1.027,0,0,0-.848.166C59.607,94.767,60.108,95.433,60.783,95.477Z" transform="translate(-55.299 -78.011)" fill="#c15d7c"/>
          <path id="Path_969" data-name="Path 969" d="M50.291,134.468a2.813,2.813,0,0,0,1.6-1.556,2.728,2.728,0,0,0-.714-2.886,3.28,3.28,0,0,0-1.722-.974,2.939,2.939,0,0,0-2.139.43,2.443,2.443,0,0,0-1.144,1.9,2.317,2.317,0,0,0,.408,1.2C47.275,133.7,48.619,135.073,50.291,134.468Z" transform="translate(-45.377 -103.174)" fill="#eae1bb"/>
          <path id="Path_970" data-name="Path 970" d="M53.972,133.378a.933.933,0,0,0,.745-.357.675.675,0,0,0,0-.8.812.812,0,0,0-.528-.262,1.028,1.028,0,0,0-.833.23C52.745,132.759,53.3,133.386,53.972,133.378Z" transform="translate(-50.358 -105.297)" fill="#c15d7c"/>
          <path id="Path_971" data-name="Path 971" d="M47.543,173.291a2.813,2.813,0,0,0,1.55-1.611,2.728,2.728,0,0,0-.813-2.86,3.278,3.278,0,0,0-1.754-.914,2.94,2.94,0,0,0-2.123.5,2.444,2.444,0,0,0-1.078,1.943,2.316,2.316,0,0,0,.449,1.183C44.5,172.63,45.893,173.952,47.543,173.291Z" transform="translate(-43.323 -131.161)" fill="#eae1bb"/>
          <path id="Path_972" data-name="Path 972" d="M51.044,172.238a.934.934,0,0,0,.733-.382.675.675,0,0,0-.024-.8.813.813,0,0,0-.537-.244,1.029,1.029,0,0,0-.824.258C49.8,171.662,50.368,172.269,51.044,172.238Z" transform="translate(-48.233 -133.275)" fill="#c15d7c"/>
        </g>
        <g id="Group_727" data-name="Group 727" transform="translate(0 14.598)">
          <path id="Path_973" data-name="Path 973" d="M3.142,210.075a3.176,3.176,0,0,1-4.5.069c-12.75-12.226-18.356-31.552-13.879-48.675,2.876-11,9.476-20.88,11.318-32.1,2.508-15.268-5.255-31.55-18.275-39.736a.4.4,0,0,1,.369-.706C-3.06,96.911,9.866,116.2,8.541,136.76c-1.167,18.112-12.065,36.13-6.529,53.415,1.242,3.879,3.285,7.51,4.046,11.511C6.629,204.689,5.294,207.789,3.142,210.075Z" transform="translate(22.379 -88.894)" fill="#97cdf6"/>
          <path id="Path_974" data-name="Path 974" d="M-21.807,88.929a.4.4,0,0,0-.407.67A47.231,47.231,0,0,1,2.127,131.438c-.132,7.31-1.941,14.551-3.886,21.6L-5.128,134.7q-.357,1.228-.769,2.442l3.4,18.535-.015.055c-.519,1.857-1.056,3.777-1.556,5.667-2.486,9.393-4.626,20.387-1.65,30.711a28.446,28.446,0,0,0,8.366,13.288,25.052,25.052,0,0,0,2.462,1.921,10.581,10.581,0,0,0,.508-1.134A27.406,27.406,0,0,1-4.49,192.01l5.1-9.044c-.063-.74-.1-1.481-.122-2.224l-5.417,9.615c-2.323-9.635-.3-19.853,2.027-28.655.5-1.883,1.034-3.8,1.552-5.651,2.226-7.961,4.528-16.194,4.679-24.591A48.39,48.39,0,0,0-18.285,90.6Q-20.009,89.7-21.807,88.929Z" transform="translate(22.364 -88.894)" fill="#4b77c6"/>
        </g>
        <g id="Group_728" data-name="Group 728" transform="translate(18.384 8.752)">
          <path id="Path_975" data-name="Path 975" d="M67.19,68.51c-24.676,35.171-30.738,82.666-15.912,122.961a4.208,4.208,0,0,0,6.921,1.537,58.833,58.833,0,0,0,14.083-23.236c3.292-10.373,4.241-21.341,4.565-32.219.669-22.473-2.972-46.458-7.558-68.6A1.168,1.168,0,0,0,67.19,68.51Z" transform="translate(-43.28 -68.015)" fill="#c15d7c"/>
          <path id="Path_976" data-name="Path 976" d="M60.847,122.189q.742-5.275,1.621-10.671c3.052-18.682,6.707-34.311,8.915-43.043a1.181,1.181,0,0,0-.85-.45C68.774,74.969,66.067,86.4,63.48,100.3L60.174,84.091q-.343.677-.676,1.36l3.53,17.314q-.754,4.168-1.48,8.59c-2.17,13.278-3.7,26.032-4.586,38.055L46.7,128.347c-.072.569-.143,1.138-.207,1.707l10.336,21.216q-.274,4.018-.45,7.922a253.749,253.749,0,0,0,.669,35.018,4.224,4.224,0,0,0,.941.009q-.748-7.863-.925-16.491L77.589,156.71q.121-.785.23-1.572L57.04,176.415q-.125-8.265.271-17.174c.5-11.082,1.6-22.894,3.283-35.246L77.35,103.127c-.052-.431-.107-.861-.161-1.292Z" transform="translate(-45.593 -68.022)" fill="#e57fa3"/>
        </g>
        <g id="Group_731" data-name="Group 731" transform="translate(11.876 17.236)">
          <g id="Group_729" data-name="Group 729">
            <path id="Path_977" data-name="Path 977" d="M138.519,115.8a20.238,20.238,0,0,1,2.96-12.077c1.912-3.056,4.972-5.585,8.216-5.4,3.664.207,6.5,4.005,6.841,8.09s-1.378,8.227-3.842,11.418c-1.856,2.4-6.077,7.423-9.053,7.645C140.15,125.738,138.746,118.782,138.519,115.8Z" transform="translate(-105.305 -98.314)" fill="#2f0d6a"/>
            <path id="Path_978" data-name="Path 978" d="M150.862,215.118a20.237,20.237,0,0,1,8.33-9.232c3.132-1.784,7.025-2.562,9.794-.863,3.128,1.919,3.821,6.605,2.19,10.366s-5.112,6.591-8.794,8.233c-2.773,1.236-8.869,3.656-11.6,2.442C147.59,224.64,149.65,217.85,150.862,215.118Z" transform="translate(-112.951 -174.465)" fill="#2f0d6a"/>
            <path id="Path_979" data-name="Path 979" d="M142.891,305.351a20.24,20.24,0,0,1,8.28-9.277c3.122-1.8,7.011-2.6,9.789-.915,3.138,1.9,3.857,6.584,2.246,10.354s-5.076,6.619-8.75,8.281c-2.766,1.251-8.849,3.7-11.582,2.5C139.67,314.891,141.694,308.09,142.891,305.351Z" transform="translate(-107.24 -239.377)" fill="#2f0d6a"/>
            <path id="Path_980" data-name="Path 980" d="M80.78,150a20.238,20.238,0,0,0-4.171-11.714c-2.213-2.845-5.513-5.051-8.722-4.539-3.624.578-6.055,4.644-5.984,8.743s2.206,8.044,4.982,10.968c2.09,2.2,6.8,6.767,9.783,6.686C80.167,160.053,80.857,152.991,80.78,150Z" transform="translate(-50.18 -123.775)" fill="#2f0d6a"/>
            <path id="Path_981" data-name="Path 981" d="M54.549,244.254a20.236,20.236,0,0,0-6.691-10.481c-2.794-2.277-6.505-3.686-9.517-2.468-3.4,1.376-4.86,5.884-3.871,9.862s3.953,7.345,7.314,9.572c2.53,1.677,8.144,5.071,11.033,4.323C56.2,254.185,55.293,247.148,54.549,244.254Z" transform="translate(-30.21 -193.745)" fill="#2f0d6a"/>
            <path id="Path_982" data-name="Path 982" d="M41.7,343.166a20.236,20.236,0,0,0-9.848-7.592c-3.4-1.195-7.37-1.263-9.79.9-2.734,2.448-2.577,7.183-.3,10.591s6.209,5.569,10.126,6.526c2.949.72,9.38,2.009,11.845.326C46.629,351.948,43.387,345.637,41.7,343.166Z" transform="translate(-20.037 -268.547)" fill="#2f0d6a"/>
          </g>
          <path id="Path_983" data-name="Path 983" d="M113.943,132.29a.4.4,0,0,0-.552.144,111.38,111.38,0,0,0-12.976,34.617,28.52,28.52,0,0,0-1.905-6.671,39.066,39.066,0,0,0-2.683-5.4.4.4,0,1,0-.685.426c.055.088,5.453,8.86,4.543,15.726v0q-.822,5.11-1.2,10.319-.133,1.855-.206,3.713c-.006.122-.013.243-.015.364,0,.007,0,.014,0,.022q-.116,3.181-.061,6.367c-2.428-6.644-8.609-14.106-8.923-14.483a.4.4,0,1,0-.62.517c.091.109,9.141,11.032,9.678,17.979,0,.005,0,.01,0,.015a118.457,118.457,0,0,0,1.394,12.99c0,.02,0,.041.007.061s.006.026.01.04c.06.365.118.73.182,1.1q.394,2.269.882,4.528a38.579,38.579,0,0,0-6.073-7.684,63.121,63.121,0,0,0-6.116-5.45.4.4,0,1,0-.486.644c.115.087,11.509,8.769,13.64,16.8a.393.393,0,0,0,.076.145,124.036,124.036,0,0,0,7.33,20.809.4.4,0,1,0,.734-.334A121.911,121.911,0,0,1,100.729,210c-.069-.4-.134-.8-.2-1.2-.937-6.818,6.307-13.229,6.381-13.293a.4.4,0,0,0-.53-.608,25.032,25.032,0,0,0-3.714,4.262,17.339,17.339,0,0,0-2.7,5.778,117.519,117.519,0,0,1-.884-19.59c.227-6.53,7.758-13.34,7.835-13.408a.4.4,0,0,0-.538-.6,34.076,34.076,0,0,0-4.011,4.439,24.049,24.049,0,0,0-3.024,5.061,112.626,112.626,0,0,1,14.745-47.994A.4.4,0,0,0,113.943,132.29Z" transform="translate(-68.958 -122.737)" fill="#2f0d6a"/>
          <g id="Group_730" data-name="Group 730" transform="translate(0.096 0.218)">
            <path id="Path_984" data-name="Path 984" d="M163.607,114.774q.2-.417.38-.845l-11.266,5.254c.574-1.834,1.241-3.664,2-5.468a59.8,59.8,0,0,1,7.506-13.1c-.15-.138-.3-.27-.461-.394a58.742,58.742,0,0,0-5.656,9.052l.309-10.179q-.308.082-.611.192l-.343,11.295q-.684,1.428-1.3,2.9a61.65,61.65,0,0,0-3.648,11.972,3.024,3.024,0,0,0,.549.345,58.815,58.815,0,0,1,1.428-5.838Z" transform="translate(-114.074 -99.094)" fill="#422299"/>
            <path id="Path_985" data-name="Path 985" d="M167.081,221.712q.374-.272.734-.564l-12.41-.713c1.375-1.343,2.829-2.639,4.349-3.869a59.816,59.816,0,0,1,12.818-7.979c-.066-.192-.139-.381-.219-.565a58.752,58.752,0,0,0-9.27,5.291l5.1-8.817q-.31-.074-.629-.12l-5.655,9.783q-1.279.934-2.522,1.936a61.643,61.643,0,0,0-8.886,8.813,3.024,3.024,0,0,0,.32.564,58.728,58.728,0,0,1,4.024-4.464Z" transform="translate(-114.058 -174.898)" fill="#422299"/>
            <path id="Path_986" data-name="Path 986" d="M159.175,311.848q.373-.274.732-.568l-12.414-.646c1.367-1.35,2.815-2.654,4.328-3.893a59.819,59.819,0,0,1,12.774-8.048c-.067-.192-.141-.38-.222-.564a58.728,58.728,0,0,0-9.241,5.341l5.048-8.844q-.31-.072-.63-.117l-5.6,9.814q-1.274.94-2.511,1.95a61.654,61.654,0,0,0-8.838,8.861,3,3,0,0,0,.323.562,58.808,58.808,0,0,1,4-4.486Z" transform="translate(-108.378 -239.795)" fill="#422299"/>
            <path id="Path_987" data-name="Path 987" d="M69.236,150.3q-.241-.395-.463-.8l11.741,4.082c-.758-1.766-1.607-3.519-2.541-5.237a59.82,59.82,0,0,0-8.8-12.27c.135-.152.274-.3.418-.438a58.75,58.75,0,0,1,6.546,8.431L74.8,133.975q.315.05.627.129l1.489,11.2q.825,1.352,1.591,2.753A61.643,61.643,0,0,1,83.35,159.6a3,3,0,0,1-.511.4,58.815,58.815,0,0,0-2.014-5.663Z" transform="translate(-55.223 -124.209)" fill="#422299"/>
            <path id="Path_988" data-name="Path 988" d="M41.281,248.038q-.324-.331-.631-.677l12.358,1.346c-1.134-1.551-2.355-3.069-3.651-4.534a59.816,59.816,0,0,0-11.324-9.986c.1-.179.2-.353.309-.521a58.722,58.722,0,0,1,8.269,6.749l-3.57-9.537q.318-.022.64-.015l3.962,10.583q1.108,1.132,2.167,2.326a61.655,61.655,0,0,1,7.309,10.16,3.017,3.017,0,0,1-.409.5,58.851,58.851,0,0,0-3.232-5.067Z" transform="translate(-33.09 -193.967)" fill="#422299"/>
            <path id="Path_989" data-name="Path 989" d="M28.132,353.315q-.417-.2-.823-.423l12.082-2.923c-1.593-1.075-3.256-2.089-4.972-3.028a59.814,59.814,0,0,0-14.039-5.555c.031-.2.068-.4.115-.595a58.734,58.734,0,0,1,10.067,3.546l-6.592-7.762q.292-.128.6-.231l7.315,8.613q1.426.69,2.828,1.454a61.614,61.614,0,0,1,10.32,7.08,3,3,0,0,1-.214.612,58.8,58.8,0,0,0-4.758-3.671Z" transform="translate(-20.38 -269.915)" fill="#422299"/>
          </g>
        </g>
        <g id="Group_732" data-name="Group 732" transform="translate(42.019 48.575)">
          <path id="Path_990" data-name="Path 990" d="M135.845,296.923a2.228,2.228,0,0,1-3.063-.754,35.8,35.8,0,0,1-.744-35.49c3.91-6.948,10.147-12.475,13.395-19.756,4.421-9.91,2.055-22.337-5.319-30.209a.28.28,0,0,1,.376-.413c11.3,8.756,16.637,24.139,12.075,37.853-4.018,12.078-14.62,22.358-13.943,35.069.152,2.852.891,5.679.694,8.529A6.935,6.935,0,0,1,135.845,296.923Z" transform="translate(-127.692 -210.24)" fill="#eae1bb"/>
          <path id="Path_991" data-name="Path 991" d="M154.2,210.3a.278.278,0,0,0-.4.382,33.124,33.124,0,0,1,9.058,32.716c-1.392,4.935-3.908,9.525-6.484,13.958l.982-13.04q-.461.77-.957,1.52l-.993,13.179-.02.034c-.683,1.167-1.389,2.374-2.065,3.567-3.359,5.929-6.769,13-6.589,20.538a19.953,19.953,0,0,0,3.308,10.5,17.552,17.552,0,0,0,1.327,1.742,7.41,7.41,0,0,0,.547-.679,19.219,19.219,0,0,1-4.335-11.414l5.067-5.227q.134-.77.314-1.53l-5.387,5.557c.141-6.949,3.331-13.521,6.479-19.076.673-1.188,1.378-2.393,2.059-3.557,2.928-5,5.956-10.178,7.555-15.847a33.936,33.936,0,0,0-7.379-31.568Q155.279,211.142,154.2,210.3Z" transform="translate(-141.397 -210.24)" fill="#fefae4"/>
        </g>
        <g id="Group_733" data-name="Group 733" transform="translate(97.485 89.188)">
          <path id="Path_992" data-name="Path 992" d="M328.625,365.8c1.454-3.882,3.688-7.8,7.543-9.583,5.089-2.348,11.7,0,15.229,4.4s4.406,10.3,3.729,15.734A32.782,32.782,0,0,1,339.9,399.659c-3.957,2.475-8.74,3.448-11.141-1.558-2.206-4.6-2.847-10.387-2.96-15.343A45.474,45.474,0,0,1,328.625,365.8Z" transform="translate(-325.79 -355.293)" fill="#4b77c6"/>
          <path id="Path_993" data-name="Path 993" d="M357.786,385.768l-12.867,6.818a58.565,58.565,0,0,0,2.617-13.39,71.142,71.142,0,0,0-.186-12.028l5.458-9.954c-.233-.134-.47-.261-.71-.382l-4.891,8.92c-.363-3.392-.894-6.843-1.493-10.443-.271.006-.54.024-.809.049,1.38,8.271,2.394,15.732,1.844,23.516l-13.125-11.813c-.094.278-.188.556-.277.836l13.323,11.991a62.476,62.476,0,0,1-6.223,21.738,8.991,8.991,0,0,0,.984-.2,73.1,73.1,0,0,0,3.127-7.739l12.6-6.674C357.373,386.6,357.585,386.188,357.786,385.768Z" transform="translate(-331.23 -355.304)" fill="#97cdf6"/>
        </g>
        <g id="Group_736" data-name="Group 736" transform="translate(84.201 65.459)">
          <g id="Group_734" data-name="Group 734" transform="translate(0 2.514)">
            <path id="Path_994" data-name="Path 994" d="M278.763,341.176h-.015a.42.42,0,0,1-.4-.435c.815-22.921,10.124-45.187,25.541-61.091a.42.42,0,0,1,.6.585c-15.274,15.756-24.5,37.821-25.305,60.536A.42.42,0,0,1,278.763,341.176Z" transform="translate(-278.343 -279.523)" fill="#c15d7c"/>
          </g>
          <path id="Path_995" data-name="Path 995" d="M359.89,274.851a2.814,2.814,0,0,0,1.656,1.5,2.728,2.728,0,0,0,2.835-.9,3.28,3.28,0,0,0,.862-1.781,2.938,2.938,0,0,0-.566-2.106,2.444,2.444,0,0,0-1.974-1.02,2.318,2.318,0,0,0-1.169.484C360.46,271.792,359.18,273.222,359.89,274.851Z" transform="translate(-336.91 -270.543)" fill="#c15d7c"/>
          <path id="Path_996" data-name="Path 996" d="M340.263,313.617a2.812,2.812,0,0,0,.214,2.225,2.727,2.727,0,0,0,2.7,1.245,3.278,3.278,0,0,0,1.836-.737,2.939,2.939,0,0,0,1-1.939,2.443,2.443,0,0,0-.773-2.083,2.317,2.317,0,0,0-1.19-.429C342.744,311.739,340.835,311.934,340.263,313.617Z" transform="translate(-322.827 -300.287)" fill="#c15d7c"/>
          <path id="Path_997" data-name="Path 997" d="M321.328,341.731a2.814,2.814,0,0,0,.525,2.172,2.727,2.727,0,0,0,2.849.852,3.277,3.277,0,0,0,1.714-.988,2.939,2.939,0,0,0,.717-2.06,2.443,2.443,0,0,0-1.058-1.953,2.318,2.318,0,0,0-1.239-.257C323.521,339.522,321.658,339.984,321.328,341.731Z" transform="translate(-309.262 -320.189)" fill="#c15d7c"/>
          <path id="Path_998" data-name="Path 998" d="M304.831,374.549a2.812,2.812,0,0,0,.681,2.129,2.727,2.727,0,0,0,2.9.644,3.277,3.277,0,0,0,1.639-1.109,2.939,2.939,0,0,0,.566-2.106,2.443,2.443,0,0,0-1.2-1.872,2.319,2.319,0,0,0-1.254-.167C306.858,372.188,305.034,372.783,304.831,374.549Z" transform="translate(-297.403 -343.628)" fill="#c15d7c"/>
          <path id="Path_999" data-name="Path 999" d="M340.243,287.462a2.815,2.815,0,0,0,2.107-.747,2.727,2.727,0,0,0,.553-2.922,3.278,3.278,0,0,0-1.16-1.6,2.94,2.94,0,0,0-2.123-.5,2.444,2.444,0,0,0-1.833,1.255,2.32,2.32,0,0,0-.128,1.259C337.819,285.51,338.472,287.315,340.243,287.462Z" transform="translate(-321.028 -278.545)" fill="#c15d7c"/>
          <path id="Path_1000" data-name="Path 1000" d="M318.549,317.427a2.814,2.814,0,0,0,2.107-.747,2.727,2.727,0,0,0,.553-2.922,3.279,3.279,0,0,0-1.16-1.6,2.941,2.941,0,0,0-2.123-.5,2.444,2.444,0,0,0-1.833,1.255,2.319,2.319,0,0,0-.128,1.259C316.125,315.475,316.778,317.28,318.549,317.427Z" transform="translate(-305.408 -300.12)" fill="#c15d7c"/>
          <path id="Path_1001" data-name="Path 1001" d="M299.373,350.75a2.813,2.813,0,0,0,2.044-.9,2.727,2.727,0,0,0,.329-2.955,3.276,3.276,0,0,0-1.278-1.51,2.94,2.94,0,0,0-2.155-.337,2.445,2.445,0,0,0-1.733,1.39,2.321,2.321,0,0,0-.032,1.265C296.808,348.987,297.6,350.737,299.373,350.75Z" transform="translate(-291.399 -324.129)" fill="#c15d7c"/>
          <path id="Path_1002" data-name="Path 1002" d="M283.323,386.237a2.815,2.815,0,0,0,2.011-.974,2.728,2.728,0,0,0,.228-2.965,3.28,3.28,0,0,0-1.329-1.465,2.939,2.939,0,0,0-2.165-.263,2.442,2.442,0,0,0-1.684,1.449,2.318,2.318,0,0,0,.011,1.266C280.7,384.563,281.546,386.285,283.323,386.237Z" transform="translate(-279.752 -349.691)" fill="#c15d7c"/>
          <g id="Group_735" data-name="Group 735" transform="translate(2.696 1.884)">
            <path id="Path_1003" data-name="Path 1003" d="M371.565,278.194a.933.933,0,0,0,.4.721.674.674,0,0,0,.8-.048.811.811,0,0,0,.228-.544,1.029,1.029,0,0,0-.283-.816C372.1,276.93,371.514,277.52,371.565,278.194Z" transform="translate(-348.157 -277.273)" fill="#553d95"/>
            <path id="Path_1004" data-name="Path 1004" d="M351.925,320.7a.933.933,0,0,0-.187.8.674.674,0,0,0,.621.5.811.811,0,0,0,.534-.249,1.028,1.028,0,0,0,.341-.794C353.174,320.132,352.341,320.171,351.925,320.7Z" transform="translate(-333.864 -308.267)" fill="#553d95"/>
            <path id="Path_1005" data-name="Path 1005" d="M333.33,348.057a.934.934,0,0,0-.072.823.675.675,0,0,0,.685.408.812.812,0,0,0,.494-.322,1.028,1.028,0,0,0,.225-.834C334.486,347.315,333.667,347.471,333.33,348.057Z" transform="translate(-320.531 -327.886)" fill="#553d95"/>
            <path id="Path_1006" data-name="Path 1006" d="M316.951,380.526a.934.934,0,0,0-.012.826.674.674,0,0,0,.713.357.811.811,0,0,0,.47-.356,1.028,1.028,0,0,0,.164-.848C318.051,379.7,317.245,379.917,316.951,380.526Z" transform="translate(-308.763 -351.225)" fill="#553d95"/>
            <path id="Path_1007" data-name="Path 1007" d="M346.071,286.486a.934.934,0,0,0,.826-.014.675.675,0,0,0,.335-.724.81.81,0,0,0-.371-.458,1.027,1.027,0,0,0-.853-.138C345.214,285.413,345.453,286.211,346.071,286.486Z" transform="translate(-329.395 -282.916)" fill="#553d95"/>
            <path id="Path_1008" data-name="Path 1008" d="M324.377,316.451a.934.934,0,0,0,.826-.014.674.674,0,0,0,.335-.724.811.811,0,0,0-.371-.458,1.028,1.028,0,0,0-.852-.138C323.52,315.378,323.759,316.177,324.377,316.451Z" transform="translate(-313.775 -304.492)" fill="#553d95"/>
            <path id="Path_1009" data-name="Path 1009" d="M304.837,349.672a.934.934,0,0,0,.823-.077.674.674,0,0,0,.279-.747.811.811,0,0,0-.4-.429,1.028,1.028,0,0,0-.86-.073C303.9,348.667,304.2,349.445,304.837,349.672Z" transform="translate(-299.665 -328.401)" fill="#553d95"/>
            <path id="Path_1010" data-name="Path 1010" d="M288.62,385.125a.934.934,0,0,0,.82-.1.674.674,0,0,0,.253-.756.812.812,0,0,0-.419-.415,1.028,1.028,0,0,0-.862-.043C287.65,384.152,287.976,384.92,288.62,385.125Z" transform="translate(-287.97 -353.923)" fill="#553d95"/>
          </g>
        </g>
        <g id="Group_737" data-name="Group 737" transform="translate(52.717 59.4)">
          <path id="Path_1011" data-name="Path 1011" d="M194.766,249.1c-21.038,19.111-31.855,48.881-28.144,77.041a2.784,2.784,0,0,0,4.243,2,38.925,38.925,0,0,0,12.466-12.949c3.632-6.216,5.839-13.156,7.63-20.129,3.7-14.407,4.836-30.414,5.1-45.373A.773.773,0,0,0,194.766,249.1Z" transform="translate(-165.901 -248.903)" fill="#553d95"/>
          <path id="Path_1012" data-name="Path 1012" d="M187.943,282.569q1.245-3.3,2.6-6.651c4.686-11.613,9.317-21.168,12.011-26.482a.779.779,0,0,0-.483-.414c-2.145,4.225-5.553,11.206-9.245,19.807l.223-10.944q-.32.387-.634.779l-.239,11.688q-1.093,2.58-2.2,5.328c-3.331,8.254-6.175,16.262-8.492,23.892l-3.56-15.085q-.194.535-.382,1.072l3.586,15.195q-.761,2.553-1.442,5.047a167.857,167.857,0,0,0-4.659,22.7,2.787,2.787,0,0,0,.606.143q.66-5.183,1.8-10.777l16.3-10.581q.192-.489.377-.982l-16.5,10.711q1.121-5.352,2.672-11.044c1.931-7.08,4.358-14.543,7.242-22.269l13.847-11.032c.029-.286.056-.571.084-.857Z" transform="translate(-172.468 -248.989)" fill="#6858b7"/>
        </g>
        <g id="Group_738" data-name="Group 738" transform="translate(67.795 93.4)">
          <path id="Path_1013" data-name="Path 1013" d="M254.538,391.336a33.076,33.076,0,0,0-15.656-18.58c-4.717-2.516-10.921-3.694-15.147-.419a11.247,11.247,0,0,0-3.974,8.494,22.2,22.2,0,0,0,2.079,9.378,44.788,44.788,0,0,0,23.135,23.2c1.718.751,5.94,3.053,7.773,2.1,1.741-.9,2.391-5.532,2.742-7.244A33.035,33.035,0,0,0,254.538,391.336Z" transform="translate(-219.75 -370.335)" fill="#97cdf6"/>
          <path id="Path_1014" data-name="Path 1014" d="M227.012,392.124c-.091-.206-.184-.412-.272-.62-.062-.147-.123-.294-.183-.442l21.981,6.777q-2.162-3.683-4.48-7.266c-3.792-5.85-8.641-12.5-14.926-17.3a9,9,0,0,1,.813-.487,60.514,60.514,0,0,1,11.749,12.731l-2.853-13.388q.481.12.957.264l3.192,14.98c.627.918,1.23,1.827,1.807,2.718a194.542,194.542,0,0,1,12.2,21.773l4.058-8.044q-.032,1.117-.138,2.23l-3.44,6.82q.639,1.354,1.257,2.718a3.862,3.862,0,0,1-.588.834,194.156,194.156,0,0,0-8.946-17.461Z" transform="translate(-224.65 -371.63)" fill="#4b77c6"/>
        </g>
      </g>
    </g>
  </g>
</svg>
