<svg xmlns="http://www.w3.org/2000/svg" xmlns:xlink="http://www.w3.org/1999/xlink" width="138.517" height="133.528" viewBox="0 0 138.517 133.528">
  <defs>
    <clipPath id="clip-path">
      <path id="Rectangle_943" data-name="Rectangle 943" d="M0,0H123.517a15,15,0,0,1,15,15V133.528a0,0,0,0,1,0,0H0a0,0,0,0,1,0,0V0A0,0,0,0,1,0,0Z" fill="#7480ff"/>
    </clipPath>
  </defs>
  <g id="Group_723" data-name="Group 723" clip-path="url(#clip-path)">
    <g id="Group_722" data-name="Group 722" transform="translate(5.767 -11.128)">
      <g id="Group_708" data-name="Group 708" transform="translate(97.896 69.201)">
        <g id="Group_705" data-name="Group 705" transform="translate(0 28.796)">
          <path id="Path_897" data-name="Path 897" d="M635.477,420.882a2.923,2.923,0,0,0-1.96-1.246,2.834,2.834,0,0,0-2.745,1.419,3.406,3.406,0,0,0-.569,1.975,3.055,3.055,0,0,0,.95,2.058,2.539,2.539,0,0,0,2.2.7,2.408,2.408,0,0,0,1.112-.7C635.432,424.115,636.491,422.426,635.477,420.882Z" transform="translate(-630.2 -384.403)" fill="#4b77c6"/>
          <path id="Path_898" data-name="Path 898" d="M647.684,381.159a2.924,2.924,0,0,0-.61-2.241,2.834,2.834,0,0,0-2.985-.8,3.4,3.4,0,0,0-1.751,1.078,3.053,3.053,0,0,0-.683,2.161,2.539,2.539,0,0,0,1.158,2,2.409,2.409,0,0,0,1.295.23C645.473,383.518,647.394,382.983,647.684,381.159Z" transform="translate(-638.316 -354.894)" fill="#4b77c6"/>
          <path id="Path_899" data-name="Path 899" d="M661.68,349.93a2.923,2.923,0,0,0-.92-2.132,2.834,2.834,0,0,0-3.068-.371,3.406,3.406,0,0,0-1.581,1.313,3.055,3.055,0,0,0-.372,2.236,2.54,2.54,0,0,0,1.428,1.814,2.406,2.406,0,0,0,1.314.045C659.824,352.577,661.65,351.776,661.68,349.93Z" transform="translate(-648.259 -333.018)" fill="#4b77c6"/>
          <path id="Path_900" data-name="Path 900" d="M672.424,314.578a2.924,2.924,0,0,0-1.071-2.06,2.834,2.834,0,0,0-3.086-.149,3.407,3.407,0,0,0-1.483,1.424,3.053,3.053,0,0,0-.209,2.257,2.539,2.539,0,0,0,1.555,1.706,2.409,2.409,0,0,0,1.314-.049C670.764,317.352,672.527,316.422,672.424,314.578Z" transform="translate(-655.903 -308.087)" fill="#4b77c6"/>
          <path id="Path_901" data-name="Path 901" d="M652.686,405.455a2.924,2.924,0,0,0-2.026,1.136,2.834,2.834,0,0,0-.052,3.089,3.406,3.406,0,0,0,1.47,1.437,3.053,3.053,0,0,0,2.262.138A2.539,2.539,0,0,0,656,409.649a2.411,2.411,0,0,0-.091-1.312C655.511,407.028,654.526,405.294,652.686,405.455Z" transform="translate(-644.363 -374.358)" fill="#4b77c6"/>
          <path id="Path_902" data-name="Path 902" d="M668.992,372.25a2.924,2.924,0,0,0-2.026,1.135,2.834,2.834,0,0,0-.052,3.089,3.408,3.408,0,0,0,1.47,1.437,3.054,3.054,0,0,0,2.262.138,2.539,2.539,0,0,0,1.657-1.607,2.407,2.407,0,0,0-.091-1.312C671.818,373.822,670.832,372.088,668.992,372.25Z" transform="translate(-655.926 -350.813)" fill="#4b77c6"/>
          <path id="Path_903" data-name="Path 903" d="M682.032,336.279a2.924,2.924,0,0,0-1.934,1.286,2.834,2.834,0,0,0,.183,3.084,3.405,3.405,0,0,0,1.575,1.322,3.054,3.054,0,0,0,2.266-.034,2.54,2.54,0,0,0,1.53-1.729,2.408,2.408,0,0,0-.19-1.3C684.969,337.632,683.855,335.979,682.032,336.279Z" transform="translate(-665.314 -325.289)" fill="#4b77c6"/>
          <path id="Path_904" data-name="Path 904" d="M691.747,298.643a2.923,2.923,0,0,0-1.888,1.352,2.834,2.834,0,0,0,.288,3.076,3.407,3.407,0,0,0,1.619,1.267,3.055,3.055,0,0,0,2.264-.112,2.539,2.539,0,0,0,1.469-1.78,2.408,2.408,0,0,0-.234-1.294C694.728,299.894,693.557,298.28,691.747,298.643Z" transform="translate(-672.266 -298.591)" fill="#4b77c6"/>
        </g>
        <g id="Group_706" data-name="Group 706" transform="translate(2.151)">
          <path id="Path_905" data-name="Path 905" d="M638.029,267.234a.437.437,0,0,1-.36-.683c12.869-18.822,18.432-43.041,15.262-66.444a.436.436,0,0,1,.865-.117c3.2,23.615-2.417,48.055-15.407,67.054A.437.437,0,0,1,638.029,267.234Z" transform="translate(-637.592 -199.612)" fill="#4b77c6"/>
        </g>
        <g id="Group_707" data-name="Group 707" transform="translate(0.853 32.34)">
          <path id="Path_906" data-name="Path 906" d="M634.621,429.4a.971.971,0,0,0-.54-.667.7.7,0,0,0-.807.189.844.844,0,0,0-.137.6,1.068,1.068,0,0,0,.433.786C634.292,430.789,634.792,430.082,634.621,429.4Z" transform="translate(-633.131 -394.377)" fill="#97cdf6"/>
          <path id="Path_907" data-name="Path 907" d="M646.668,384.294a.97.97,0,0,0,.05-.857.7.7,0,0,0-.724-.4.844.844,0,0,0-.5.349,1.068,1.068,0,0,0-.209.873C645.49,385.1,646.336,384.913,646.668,384.294Z" transform="translate(-641.729 -362.004)" fill="#97cdf6"/>
          <path id="Path_908" data-name="Path 908" d="M660.442,354.1a.971.971,0,0,0-.072-.856.7.7,0,0,0-.773-.3.844.844,0,0,0-.45.416,1.068,1.068,0,0,0-.084.893C659.388,355.066,660.2,354.762,660.442,354.1Z" transform="translate(-651.474 -340.659)" fill="#97cdf6"/>
          <path id="Path_909" data-name="Path 909" d="M671.119,319.3a.971.971,0,0,0-.133-.848.7.7,0,0,0-.793-.24.842.842,0,0,0-.418.447,1.068,1.068,0,0,0-.019.9C670.138,320.333,670.925,319.972,671.119,319.3Z" transform="translate(-659.037 -316.014)" fill="#97cdf6"/>
          <path id="Path_910" data-name="Path 910" d="M657.642,417.683a.971.971,0,0,0-.844.16.7.7,0,0,0-.216.8.842.842,0,0,0,.461.4,1.067,1.067,0,0,0,.9-.009C658.709,418.631,658.323,417.856,657.642,417.683Z" transform="translate(-649.724 -386.557)" fill="#97cdf6"/>
          <path id="Path_911" data-name="Path 911" d="M673.949,384.477a.971.971,0,0,0-.844.16.7.7,0,0,0-.216.8.843.843,0,0,0,.461.4,1.067,1.067,0,0,0,.9-.009C675.016,385.426,674.63,384.65,673.949,384.477Z" transform="translate(-661.286 -363.011)" fill="#97cdf6"/>
          <path id="Path_912" data-name="Path 912" d="M687.566,348.458a.972.972,0,0,0-.829.223.7.7,0,0,0-.154.814.842.842,0,0,0,.49.368,1.068,1.068,0,0,0,.894-.077C688.7,349.323,688.258,348.578,687.566,348.458Z" transform="translate(-670.982 -337.483)" fill="#97cdf6"/>
          <path id="Path_913" data-name="Path 913" d="M697.54,310.783a.971.971,0,0,0-.821.252.7.7,0,0,0-.126.819.844.844,0,0,0,.5.351,1.068,1.068,0,0,0,.891-.107C698.7,311.608,698.236,310.879,697.54,310.783Z" transform="translate(-678.072 -310.773)" fill="#97cdf6"/>
        </g>
      </g>
      <g id="Group_712" data-name="Group 712" transform="translate(0 13.063)">
        <g id="Group_709" data-name="Group 709" transform="translate(0 0.99)">
          <path id="Path_914" data-name="Path 914" d="M296.976,70.833a2.17,2.17,0,0,1,1.185,1.251,2.1,2.1,0,0,1-.644,2.2,2.53,2.53,0,0,1-1.358.695,2.268,2.268,0,0,1-1.634-.4,1.885,1.885,0,0,1-.82-1.5,1.785,1.785,0,0,1,.353-.909C294.627,71.325,295.708,70.313,296.976,70.833Z" transform="translate(-293.704 -53.05)" fill="#2f0d6a"/>
          <path id="Path_915" data-name="Path 915" d="M325.341,55.662a2.17,2.17,0,0,1,1.719.127,2.1,2.1,0,0,1,1.006,2.061,2.526,2.526,0,0,1-.536,1.428,2.266,2.266,0,0,1-1.477.8,1.886,1.886,0,0,1-1.619-.56,1.787,1.787,0,0,1-.351-.911C323.935,57.607,324.053,56.132,325.341,55.662Z" transform="translate(-315.209 -42.308)" fill="#2f0d6a"/>
          <path id="Path_916" data-name="Path 916" d="M345.92,41.144a2.169,2.169,0,0,1,1.684.367,2.1,2.1,0,0,1,.705,2.182,2.526,2.526,0,0,1-.732,1.339A2.266,2.266,0,0,1,346,45.62a1.883,1.883,0,0,1-1.524-.783,1.785,1.785,0,0,1-.22-.951C344.255,42.872,344.579,41.428,345.92,41.144Z" transform="translate(-329.55 -32.069)" fill="#2f0d6a"/>
          <path id="Path_917" data-name="Path 917" d="M370.008,28.359a2.17,2.17,0,0,1,1.653.488,2.1,2.1,0,0,1,.546,2.227,2.531,2.531,0,0,1-.827,1.282,2.267,2.267,0,0,1-1.614.472,1.884,1.884,0,0,1-1.463-.891,1.785,1.785,0,0,1-.15-.964C368.223,29.962,368.651,28.546,370.008,28.359Z" transform="translate(-346.487 -23.021)" fill="#2f0d6a"/>
          <path id="Path_918" data-name="Path 918" d="M306.023,56.169a2.169,2.169,0,0,1-.54,1.637,2.1,2.1,0,0,1-2.243.476,2.527,2.527,0,0,1-1.256-.867,2.266,2.266,0,0,1-.422-1.628,1.885,1.885,0,0,1,.936-1.435,1.789,1.789,0,0,1,.969-.12C304.477,54.335,305.879,54.806,306.023,56.169Z" transform="translate(-299.263 -41.368)" fill="#2f0d6a"/>
          <path id="Path_919" data-name="Path 919" d="M327.9,39.58a2.17,2.17,0,0,1-.54,1.637,2.1,2.1,0,0,1-2.243.476,2.527,2.527,0,0,1-1.255-.867,2.266,2.266,0,0,1-.422-1.628,1.884,1.884,0,0,1,.936-1.435,1.783,1.783,0,0,1,.969-.12C326.352,37.745,327.754,38.217,327.9,39.58Z" transform="translate(-314.774 -29.605)" fill="#2f0d6a"/>
          <path id="Path_920" data-name="Path 920" d="M352.307,24.812a2.169,2.169,0,0,1-.662,1.591,2.1,2.1,0,0,1-2.273.3,2.527,2.527,0,0,1-1.186-.959,2.269,2.269,0,0,1-.3-1.656,1.885,1.885,0,0,1,1.042-1.36,1.787,1.787,0,0,1,.975-.046C350.9,22.865,352.267,23.442,352.307,24.812Z" transform="translate(-332.092 -18.979)" fill="#2f0d6a"/>
          <path id="Path_921" data-name="Path 921" d="M378.372,12.322a2.171,2.171,0,0,1-.717,1.568,2.1,2.1,0,0,1-2.282.226,2.526,2.526,0,0,1-1.152-1,2.265,2.265,0,0,1-.24-1.665,1.885,1.885,0,0,1,1.088-1.323,1.787,1.787,0,0,1,.976-.013C377.037,10.328,378.379,10.952,378.372,12.322Z" transform="translate(-350.581 -10.054)" fill="#2f0d6a"/>
        </g>
        <g id="Group_710" data-name="Group 710" transform="translate(1.898 0)">
          <path id="Path_922" data-name="Path 922" d="M300.591,28.018a.364.364,0,0,1-.259-.619A72.031,72.031,0,0,1,347.016,6.651a.367.367,0,0,1,.384.342.364.364,0,0,1-.342.384A71.294,71.294,0,0,0,300.85,27.91.362.362,0,0,1,300.591,28.018Z" transform="translate(-300.228 -6.651)" fill="#2f0d6a"/>
        </g>
        <g id="Group_711" data-name="Group 711" transform="translate(1.467 2.656)">
          <path id="Path_923" data-name="Path 923" d="M330.659,64.27a.719.719,0,0,1,.617-.158.521.521,0,0,1,.4.47.626.626,0,0,1-.183.416.792.792,0,0,1-.606.276C330.24,65.243,330.256,64.6,330.659,64.27Z" transform="translate(-321.174 -50.038)" fill="#e57fa3"/>
          <path id="Path_924" data-name="Path 924" d="M350.648,50.021a.719.719,0,0,1,.633-.069.52.52,0,0,1,.326.521.627.627,0,0,1-.239.386.793.793,0,0,1-.639.188C350.1,50.924,350.2,50.29,350.648,50.021Z" transform="translate(-335.291 -39.978)" fill="#e57fa3"/>
          <path id="Path_925" data-name="Path 925" d="M374.468,37.332a.721.721,0,0,1,.637-.023.521.521,0,0,1,.288.543.625.625,0,0,1-.267.368.793.793,0,0,1-.651.141C373.852,38.194,374,37.569,374.468,37.332Z" transform="translate(-352.151 -31)" fill="#e57fa3"/>
          <path id="Path_926" data-name="Path 926" d="M327.072,43.927a.72.72,0,0,1,0,.637.521.521,0,0,1-.552.271.628.628,0,0,1-.36-.278.793.793,0,0,1-.121-.655C326.23,43.284,326.85,43.455,327.072,43.927Z" transform="translate(-318.083 -35.437)" fill="#e57fa3"/>
          <path id="Path_927" data-name="Path 927" d="M351.4,28.882a.719.719,0,0,1-.045.636.52.52,0,0,1-.571.228.625.625,0,0,1-.337-.3.793.793,0,0,1-.071-.662C350.608,28.177,351.213,28.395,351.4,28.882Z" transform="translate(-335.324 -24.738)" fill="#e57fa3"/>
          <path id="Path_928" data-name="Path 928" d="M377.436,16.267a.72.72,0,0,1-.067.634.52.52,0,0,1-.578.208.626.626,0,0,1-.327-.316.794.794,0,0,1-.048-.664C376.669,15.536,377.267,15.774,377.436,16.267Z" transform="translate(-353.783 -15.779)" fill="#e57fa3"/>
          <path id="Path_929" data-name="Path 929" d="M299.447,79.541a.72.72,0,0,1,.563.3.52.52,0,0,1-.024.614.626.626,0,0,1-.415.185.793.793,0,0,1-.634-.2C298.482,79.978,298.926,79.513,299.447,79.541Z" transform="translate(-298.748 -60.99)" fill="#e57fa3"/>
          <path id="Path_930" data-name="Path 930" d="M305.2,60.516a.72.72,0,0,1,0,.637.52.52,0,0,1-.552.271.625.625,0,0,1-.36-.278.792.792,0,0,1-.121-.655C304.355,59.873,304.975,60.044,305.2,60.516Z" transform="translate(-302.572 -47.2)" fill="#e57fa3"/>
        </g>
      </g>
      <g id="Group_713" data-name="Group 713" transform="translate(76.094 2.167)">
        <path id="Path_931" data-name="Path 931" d="M596.54-29.5a3.3,3.3,0,0,0-4.631-.628C577.243-19.1,569.066.148,571.566,18.368c1.606,11.7,7.191,22.714,7.7,34.515.7,16.061-9.327,31.9-23.773,38.731a.415.415,0,0,0,.294.774c20.343-5.911,36.065-24.207,37.244-45.586,1.038-18.83-7.974-38.767-.123-55.914,1.762-3.848,4.319-7.341,5.6-11.375C599.471-23.514,598.478-26.877,596.54-29.5Z" transform="translate(-555.259 30.804)" fill="#eae1bb"/>
        <path id="Path_932" data-name="Path 932" d="M595.453-14.035a26.033,26.033,0,0,1,2.777-1.677,10.924,10.924,0,0,1,.384,1.233A28.479,28.479,0,0,0,586.427-1.111l4.137,9.961q-.235,1.134-.4,2.279L585.765.539c-3.589,9.652-2.77,20.444-1.456,29.813.281,2,.6,4.047.9,6.023,1.311,8.489,2.666,17.267,1.783,25.948a50.28,50.28,0,0,1-27.352,39.482q-1.889.714-3.839,1.284a.412.412,0,0,1-.337-.742A49.076,49.076,0,0,0,585.757,62.2c.768-7.558-.2-15.252-1.336-22.763l-5.745,18.5c-.144-.875-.31-1.746-.492-2.615l5.806-18.7-.009-.058c-.306-1.98-.622-4.027-.9-6.039-1.4-10-2.249-21.6,2.1-31.887a29.558,29.558,0,0,1,10.276-12.673" transform="translate(-555.272 20.103)" fill="#fefae4"/>
      </g>
      <g id="Group_714" data-name="Group 714" transform="translate(106.205 4.586)">
        <path id="Path_933" data-name="Path 933" d="M675.495,102.854c-20.937-37.14-22.289-84.633-3.717-122.979a4.176,4.176,0,0,1,6.985-.842A58.381,58.381,0,0,1,690.4,3.353c2.239,10.564,2.106,21.489,1.364,32.262-1.532,22.258-7.467,45.588-14.157,67.01A1.159,1.159,0,0,1,675.495,102.854Z" transform="translate(-658.759 22.49)" fill="#7480ff"/>
        <path id="Path_934" data-name="Path 934" d="M672.224,49.012q.217,5.281.559,10.7c1.191,18.747,3.276,34.537,4.6,43.376a1.17,1.17,0,0,1-.883.361c-1.06-7.029-2.618-18.577-3.816-32.565l-4.847,15.688c-.182-.468-.359-.938-.535-1.408l5.176-16.754q-.339-4.189-.624-8.627c-.847-13.324-1.118-26.069-.816-38.028l-12.188,19.8c-.016-.568-.03-1.137-.038-1.706L671.093,19.9q.121-3.994.328-7.867A251.855,251.855,0,0,1,675.5-22.483a4.185,4.185,0,0,1,.93.083q-1.505,7.691-2.522,16.195l18.219,22.759q.043.787.074,1.576L673.755-4.91q-.929,8.15-1.408,16.986c-.592,10.992-.658,22.764-.2,35.126l14.511,22.243c-.094.42-.19.84-.285,1.26Z" transform="translate(-658.8 22.485)" fill="#422299"/>
      </g>
      <g id="Group_717" data-name="Group 717" transform="translate(52.623 5.119)">
        <g id="Group_715" data-name="Group 715" transform="translate(0 33.717)">
          <path id="Path_935" data-name="Path 935" d="M493.909,264.456a19.014,19.014,0,0,1-6.621,9.625c-2.7,2.048-6.227,3.251-9.016,2.01-3.15-1.4-4.373-5.681-3.317-9.385a15.931,15.931,0,0,1,7.177-8.751c2.43-1.493,7.81-4.5,10.5-3.7C495.783,255.185,494.7,261.763,493.909,264.456Z" transform="translate(-474.584 -207.897)" fill="#ff9391"/>
          <path id="Path_936" data-name="Path 936" d="M503.529,186.572a19.012,19.012,0,0,1-10.391,5.338c-3.345.525-7.024-.088-8.891-2.5-2.109-2.727-1.158-7.075,1.527-9.836a15.93,15.93,0,0,1,10.467-4.305c2.847-.163,9.009-.26,11,1.715C509.573,179.3,505.5,184.576,503.529,186.572Z" transform="translate(-480.618 -151.929)" fill="#ff9391"/>
          <path id="Path_937" data-name="Path 937" d="M539.321,112.757a19.014,19.014,0,0,1-10.363,5.394c-3.343.543-7.024-.05-8.9-2.455-2.124-2.716-1.2-7.068,1.474-9.844a15.93,15.93,0,0,1,10.443-4.362c2.846-.179,9.007-.308,11.009,1.656C545.326,105.449,541.284,110.75,539.321,112.757Z" transform="translate(-505.995 -99.605)" fill="#c15d7c"/>
          <path id="Path_938" data-name="Path 938" d="M556.365,247.545a19.011,19.011,0,0,0-.236,11.68c1,3.236,3.162,6.273,6.151,6.891,3.376.7,6.865-2.064,8.168-5.689a15.93,15.93,0,0,0-.725-11.294c-1.1-2.63-3.72-8.209-6.368-9.131C560.25,238.921,557.292,244.9,556.365,247.545Z" transform="translate(-531.834 -197.795)" fill="#c15d7c"/>
          <path id="Path_939" data-name="Path 939" d="M605.326,178.321a19.013,19.013,0,0,0,2.389,11.435c1.7,2.931,4.488,5.4,7.539,5.337,3.447-.076,6.228-3.551,6.685-7.375a15.93,15.93,0,0,0-3.239-10.844c-1.664-2.316-5.466-7.166-8.253-7.471C607.178,169.045,605.636,175.53,605.326,178.321Z" transform="translate(-567.211 -147.816)" fill="#ff9391"/>
          <path id="Path_940" data-name="Path 940" d="M639.85,105.452a19.013,19.013,0,0,0,6.124,9.948c2.59,2.182,6.054,3.563,8.9,2.464,3.217-1.241,4.655-5.452,3.788-9.2a15.931,15.931,0,0,0-6.723-9.1c-2.351-1.614-7.572-4.888-10.3-4.23C638.448,96.1,639.2,102.722,639.85,105.452Z" transform="translate(-591.362 -95.24)" fill="#c15d7c"/>
        </g>
        <path id="Path_941" data-name="Path 941" d="M496.179,72.673a.379.379,0,0,0,.533.057,104.643,104.643,0,0,0,22.924-26.091,26.8,26.8,0,0,0-.548,6.495,36.682,36.682,0,0,0,.56,5.636.379.379,0,0,0,.744-.147c-.019-.1-1.841-9.6,1.244-15.328v0q2.424-4.216,4.49-8.666.734-1.585,1.417-3.194c.046-.1.093-.209.134-.314,0-.006,0-.013.006-.02q1.161-2.756,2.174-5.573c-.079,6.645,2.866,15.258,3.017,15.694a.379.379,0,1,0,.716-.248c-.044-.127-4.358-12.735-2.517-19.017,0,0,0-.009,0-.014a111.342,111.342,0,0,0,3.1-11.875c0-.019.01-.037.014-.056s0-.025,0-.038c.069-.341.139-.681.2-1.023q.409-2.125.733-4.272a36.234,36.234,0,0,0,2.776,8.772,59.18,59.18,0,0,0,3.558,6.824.379.379,0,1,0,.641-.4c-.072-.115-7.191-11.536-6.39-19.3A.37.37,0,0,0,535.7.42a116.552,116.552,0,0,0,.488-20.721.379.379,0,0,0-.244-.33.38.38,0,0,0-.159-.024.379.379,0,0,0-.354.4,114.54,114.54,0,0,1-1.775,29.059c-.072.374-.149.746-.224,1.119-1.447,6.3-9.945,9.522-10.031,9.554a.379.379,0,0,0,.263.711,23.537,23.537,0,0,0,4.681-2.508,16.28,16.28,0,0,0,4.3-4.176,110.372,110.372,0,0,1-5.745,17.5c-2.373,5.661-11.256,9.136-11.347,9.171a.379.379,0,0,0,.272.707,32.024,32.024,0,0,0,5-2.565,22.6,22.6,0,0,0,4.342-3.44A105.811,105.811,0,0,1,496.236,72.14.379.379,0,0,0,496.179,72.673Z" transform="translate(-489.837 20.656)" fill="#c15d7c"/>
        <g id="Group_716" data-name="Group 716" transform="translate(0.878 34.38)">
          <path id="Path_942" data-name="Path 942" d="M481.1,262.242q-.315.3-.615.616l11.646-.865c-1.115,1.42-2.31,2.806-3.574,4.139a56.2,56.2,0,0,1-10.955,9.01c.085.171.176.338.273.5a55.176,55.176,0,0,0,7.982-6.07l-3.66,8.839q.3.031.6.034l4.062-9.808q1.076-1.027,2.11-2.114a57.913,57.913,0,0,0,7.191-9.3,2.836,2.836,0,0,0-.367-.486,55.248,55.248,0,0,1-3.2,4.653Z" transform="translate(-477.601 -210.414)" fill="#e57fa3"/>
          <path id="Path_943" data-name="Path 943" d="M492.3,177.655q-.42.115-.833.251l10.665,4.758c-1.655.722-3.364,1.376-5.109,1.952a56.207,56.207,0,0,1-13.917,2.742c-.005.191,0,.381,0,.569a55.186,55.186,0,0,0,9.9-1.562l-7.412,6.049q.248.168.513.315l8.225-6.712q1.435-.394,2.86-.862a57.9,57.9,0,0,0,10.74-4.784,2.82,2.82,0,0,0-.094-.6,55.243,55.243,0,0,1-5.021,2.582Z" transform="translate(-481.499 -154.341)" fill="#e57fa3"/>
          <path id="Path_944" data-name="Path 944" d="M528.031,103.99q-.419.117-.832.255l10.691,4.7c-1.651.731-3.356,1.394-5.1,1.979a56.2,56.2,0,0,1-13.9,2.818c0,.191,0,.381.008.569a55.2,55.2,0,0,0,9.9-1.616l-7.379,6.089q.249.167.514.312l8.188-6.756q1.432-.4,2.855-.877a57.9,57.9,0,0,0,10.715-4.842,2.84,2.84,0,0,0-.1-.6,55.21,55.21,0,0,1-5.008,2.609Z" transform="translate(-506.876 -102.107)" fill="#e57fa3"/>
          <path id="Path_945" data-name="Path 945" d="M582.4,253.068q.081.427.14.859l-8.956-7.5c.077,1.8.24,3.626.489,5.447a56.211,56.211,0,0,0,3.644,13.709c-.169.089-.34.172-.514.246a55.189,55.189,0,0,1-2.943-9.586l-2.182,9.315q-.26-.149-.508-.322l2.421-10.336c-.183-.975-.345-1.958-.481-2.948a57.882,57.882,0,0,1-.415-11.75,2.8,2.8,0,0,1,.582-.18,55.257,55.257,0,0,0-.116,5.645Z" transform="translate(-544.233 -198.565)" fill="#e57fa3"/>
          <path id="Path_946" data-name="Path 946" d="M629.263,180.831q.174.4.329.805l-10.408-5.3c.48,1.741,1.047,3.48,1.7,5.2a56.2,56.2,0,0,0,6.624,12.543c-.145.125-.293.243-.445.354a55.165,55.165,0,0,1-5.017-8.682L622,195.32q-.286-.087-.567-.2l.043-10.616q-.6-1.363-1.13-2.765a57.914,57.914,0,0,1-3.038-11.358,2.826,2.826,0,0,1,.527-.306,55.2,55.2,0,0,0,1.152,5.527Z" transform="translate(-576.665 -148.966)" fill="#e57fa3"/>
          <path id="Path_947" data-name="Path 947" d="M657.241,103.762q.3.315.583.646l-11.587-1.455c1.042,1.475,2.165,2.919,3.359,4.315a56.214,56.214,0,0,0,10.484,9.554c-.094.166-.193.328-.3.484a55.152,55.152,0,0,1-7.664-6.466l3.207,9.013q-.3.016-.6,0l-3.559-10q-1.022-1.081-2-2.218a57.9,57.9,0,0,1-6.71-9.656,2.857,2.857,0,0,1,.392-.466,55.242,55.242,0,0,0,2.958,4.81Z" transform="translate(-594.494 -97.517)" fill="#e57fa3"/>
        </g>
      </g>
      <g id="Group_718" data-name="Group 718" transform="translate(50.583 1.268)">
        <path id="Path_948" data-name="Path 948" d="M496.622-33.717a2.315,2.315,0,0,1,3.017,1.282A37.193,37.193,0,0,1,494.509,4.09C489.345,10.567,482.03,15.2,477.49,22.13c-6.179,9.43-5.816,22.57.44,31.868a.291.291,0,0,1-.454.361c-10.142-10.858-13.057-27.522-6.1-40.83C477.5,1.807,490.082-6.977,491.5-20.127c.318-2.951.029-5.973.7-8.863A7.205,7.205,0,0,1,496.622-33.717Z" transform="translate(-467.574 33.892)" fill="#422299"/>
        <path id="Path_949" data-name="Path 949" d="M483.62,57.856a.289.289,0,0,0,.469-.326,34.417,34.417,0,0,1-3.86-35.061c2.247-4.831,5.59-9.121,8.967-13.241l-3.172,13.213q.6-.713,1.234-1.4l3.206-13.353.026-.032c.894-1.084,1.819-2.2,2.711-3.316,4.43-5.523,9.1-12.215,10.168-19.972a20.729,20.729,0,0,0-1.649-11.323,18.322,18.322,0,0,0-1.072-2.007,7.682,7.682,0,0,0-.674.606,19.97,19.97,0,0,1,2.552,12.427l-6.065,4.52q-.265.767-.576,1.517l6.448-4.805c-1.3,7.1-5.661,13.315-9.813,18.491-.888,1.107-1.811,2.225-2.7,3.307-3.834,4.646-7.8,9.451-10.379,15a35.263,35.263,0,0,0,2.328,33.6Q482.649,56.814,483.62,57.856Z" transform="translate(-473.718 30.396)" fill="#2f0d6a"/>
      </g>
      <g id="Group_719" data-name="Group 719" transform="translate(33.028)">
        <path id="Path_950" data-name="Path 950" d="M408.42,35.764c22.725-15.98,36.83-43.54,36.651-71.3a2.721,2.721,0,0,0-3.873-2.453,38.04,38.04,0,0,0-13.663,11.045c-4.278,5.587-7.261,12.051-9.844,18.6-5.336,13.523-8.383,28.91-10.451,43.387A.755.755,0,0,0,408.42,35.764Z" transform="translate(-407.232 38.251)" fill="#eae1bb"/>
        <path id="Path_951" data-name="Path 951" d="M425.546,5.213q-1.608,3.046-3.326,6.135c-5.954,10.694-11.606,19.4-14.864,24.226a.762.762,0,0,0,.418.46c2.593-3.838,6.746-10.194,11.371-18.087L417.6,28.534q.357-.337.71-.679l1.65-11.306q1.373-2.369,2.785-4.9c4.232-7.6,7.964-15.022,11.137-22.141L435.5,4.57q.253-.495.5-.993L434.369-11.6q1.048-2.384,2.012-4.72a164.14,164.14,0,0,0,7.275-21.447,2.741,2.741,0,0,0-.57-.212q-1.27,4.947-3.055,10.234l-17.1,8.282q-.246.451-.485.906l17.306-8.385q-1.737,5.054-3.932,10.387c-2.732,6.632-5.993,13.575-9.728,20.718l-14.77,9.018c-.063.273-.124.547-.185.821Z" transform="translate(-407.319 38.055)" fill="#fefae4"/>
      </g>
      <g id="Group_720" data-name="Group 720" transform="translate(18.918 6.629)">
        <path id="Path_952" data-name="Path 952" d="M383.894,22.062c-2.732,3.33-6.243,6.438-10.632,6.895-5.792.6-11.5-3.924-13.5-9.432s-.88-11.605,1.608-16.724a34.063,34.063,0,0,1,22.786-17.817c4.721-1.108,9.751-.46,10.435,5.268.628,5.262-.683,11.17-2.234,16.082A47.259,47.259,0,0,1,383.894,22.062Z" transform="translate(-358.732 15.467)" fill="#4b77c6"/>
        <path id="Path_953" data-name="Path 953" d="M376.634-5.436l14.941-2.391a60.844,60.844,0,0,0-7.063,12.292,73.928,73.928,0,0,0-3.85,11.892l-8.7,7.959c.184.21.375.414.57.614l7.8-7.133c-.78,3.458-1.415,7.029-2.032,10.771.268.085.539.158.812.223,1.416-8.6,2.92-16.275,6.07-23.745l8.947,16.018c.186-.241.371-.484.552-.729L385.6,4.075A64.919,64.919,0,0,1,399-15.218a9.342,9.342,0,0,0-1.034-.137,75.989,75.989,0,0,0-5.67,6.563L377.674-6.451C377.321-6.119,376.972-5.783,376.634-5.436Z" transform="translate(-368.109 15.388)" fill="#97cdf6"/>
      </g>
      <g id="Group_721" data-name="Group 721" transform="translate(82.71 5.544)">
        <path id="Path_954" data-name="Path 954" d="M612.559,3.353c2.008,3.811,3.507,8.254,2.223,12.475C613.087,21.4,606.7,24.9,600.844,24.6s-11.035-3.7-14.786-7.98a34.063,34.063,0,0,1-7.564-27.918c.813-4.78,3.365-9.164,8.908-7.568,5.093,1.466,10.027,4.968,13.951,8.307A47.255,47.255,0,0,1,612.559,3.353Z" transform="translate(-578.003 19.196)" fill="#97cdf6"/>
        <path id="Path_955" data-name="Path 955" d="M585.147,14.677l3.6-14.7a60.854,60.854,0,0,0,8.582,11.284,73.914,73.914,0,0,0,9.462,8.167l3.952,11.114c.265-.088.527-.185.787-.287l-3.542-9.96c2.883,2.063,5.928,4.035,9.136,6.058.182-.214.355-.436.521-.662-7.372-4.645-13.862-9.014-19.521-14.819L616.36,8.855c-.15-.265-.3-.53-.457-.792l-18.511,2.052a64.919,64.919,0,0,1-12.568-19.85,9.288,9.288,0,0,0-.528.9,75.906,75.906,0,0,0,3.844,7.774l-3.525,14.386C584.784,13.779,584.959,14.231,585.147,14.677Z" transform="translate(-582.466 12.488)" fill="#4b77c6"/>
      </g>
    </g>
  </g>
</svg>
