<svg xmlns="http://www.w3.org/2000/svg" width="22" height="20" viewBox="0 0 22 20"><defs><style>.a{fill:#787878;fill-rule:evenodd;}</style></defs><g transform="translate(-0.111 -0.25)"><g transform="translate(0.111 0.25)"><path class="a" d="M.889,12.182h1.75v7.267a.807.807,0,0,0,.785.8h5.25a.357.357,0,0,0,.241-.062V13.476H13.26V20.25h5.129a.807.807,0,0,0,.785-.8V12.182h2.172a.8.8,0,0,0,.543-1.355L11.872.481a.754.754,0,0,0-1.086,0L.346,10.827A.8.8,0,0,0,.889,12.182Z" transform="translate(-0.111 -0.25)"/></g></g></svg>