<svg xmlns="http://www.w3.org/2000/svg" width="13.439" height="9.955" viewBox="0 0 13.439 9.955">
  <g id="noun_Mail_681595" transform="translate(-10 -23)">
    <g id="Group_134" data-name="Group 134" transform="translate(10 23)">
      <path id="Path_85" data-name="Path 85" d="M11.344,975.362a1.258,1.258,0,0,0-.782.277l.005.006,5.88,6.061a.421.421,0,0,0,.546,0l5.88-6.061.005-.006a1.258,1.258,0,0,0-.782-.277H11.344Zm-1.213.841a1.592,1.592,0,0,0-.131.634v7.005a1.411,1.411,0,0,0,1.344,1.475H22.1a1.411,1.411,0,0,0,1.344-1.475v-7.005a1.592,1.592,0,0,0-.131-.634l-5.854,6.037a1.009,1.009,0,0,1-1.47,0Z" transform="translate(-10 -975.362)" fill="#fff"/>
    </g>
  </g>
</svg>
