<svg xmlns="http://www.w3.org/2000/svg" width="12.24" height="10.931" viewBox="0 0 12.24 10.931"><defs><style>.a{fill:#fff;}</style></defs><g transform="translate(0 0)"><g transform="translate(0)"><path class="a" d="M12.342,9.469a2.07,2.07,0,0,1-.482.555c-.445.452-.9.9-1.349,1.349L9.162,12.723l-.421.422a.429.429,0,0,1-.516.112.44.44,0,0,1-.254-.446q0-.787,0-1.574a.881.881,0,0,0-.006-.123H7.889c-.867.012-1.734,0-2.6.044a5.329,5.329,0,0,0-1.9.39,2.7,2.7,0,0,0-1.572,1.68,6.128,6.128,0,0,0-.233,2.289c.01.179.028.357.04.536a.736.736,0,0,1,0,.123.2.2,0,0,1-.14.172.177.177,0,0,1-.215-.054A1.611,1.611,0,0,1,1.09,16a14.623,14.623,0,0,1-.763-1.985,5.137,5.137,0,0,1-.221-1.725,7.038,7.038,0,0,1,.228-1.562A3.641,3.641,0,0,1,1.217,9.2a4.061,4.061,0,0,1,1.021-.759,6.061,6.061,0,0,1,1.51-.552,9.252,9.252,0,0,1,1.868-.245c.736-.017,1.479-.02,2.218-.028h.139v-1.7A.49.49,0,0,1,8.06,5.6a.428.428,0,0,1,.66-.033c.359.354.715.712,1.072,1.069q1.149,1.147,2.293,2.294a3.167,3.167,0,0,1,.258.337v.195Z" transform="translate(-0.101 -5.432)"/></g></g></svg>