<svg xmlns="http://www.w3.org/2000/svg" width="18.834" height="19.955" viewBox="0 0 18.834 19.955"><defs><style>.a{fill:#787878;fill-rule:evenodd;}</style></defs><g transform="translate(-3)"><g transform="translate(3)"><g transform="translate(0)"><path class="a" d="M7.484,1.121H17.35v.9a.9.9,0,0,0,1.794,0v-.9h.447a2.243,2.243,0,0,1,2.244,2.242V5.605H3V3.363A2.244,2.244,0,0,1,5.244,1.121h.447v.9a.9.9,0,0,0,1.794,0v-.9ZM3,17.714a2.243,2.243,0,0,0,2.244,2.241H19.59a2.244,2.244,0,0,0,2.244-2.241V6.054H3v11.66ZM5.915,8.969A.674.674,0,0,1,6.588,8.3h.9a.673.673,0,0,1,.673.673v.9a.673.673,0,0,1-.673.673h-.9a.673.673,0,0,1-.673-.673v-.9Zm3.587,0a.673.673,0,0,1,.673-.673h.9a.673.673,0,0,1,.673.673v.9a.673.673,0,0,1-.673.673h-.9A.673.673,0,0,1,9.5,9.865v-.9Zm3.587,0a.673.673,0,0,1,.673-.673h.9a.674.674,0,0,1,.673.673v.9a.673.673,0,0,1-.673.673h-.9a.673.673,0,0,1-.673-.673v-.9Zm3.587,0A.674.674,0,0,1,17.35,8.3h.9a.673.673,0,0,1,.673.673v.9a.673.673,0,0,1-.673.673h-.9a.673.673,0,0,1-.673-.673v-.9ZM5.915,12.556a.673.673,0,0,1,.673-.673h.9a.673.673,0,0,1,.673.673v.9a.673.673,0,0,1-.673.673h-.9a.673.673,0,0,1-.673-.673v-.9Zm3.587,0a.673.673,0,0,1,.673-.673h.9a.673.673,0,0,1,.673.673v.9a.673.673,0,0,1-.673.673h-.9a.673.673,0,0,1-.673-.673v-.9Zm3.587,0a.673.673,0,0,1,.673-.673h.9a.673.673,0,0,1,.673.673v.9a.673.673,0,0,1-.673.673h-.9a.673.673,0,0,1-.673-.673v-.9Zm3.587,0a.673.673,0,0,1,.673-.673h.9a.673.673,0,0,1,.673.673v.9a.673.673,0,0,1-.673.673h-.9a.673.673,0,0,1-.673-.673v-.9ZM5.915,16.144a.673.673,0,0,1,.673-.673h.9a.673.673,0,0,1,.673.673v.9a.673.673,0,0,1-.673.673h-.9a.673.673,0,0,1-.673-.673v-.9Zm3.587,0a.673.673,0,0,1,.673-.673h.9a.673.673,0,0,1,.673.673v.9a.673.673,0,0,1-.673.673h-.9A.673.673,0,0,1,9.5,17.04v-.9ZM6.139.448a.448.448,0,0,1,.9,0v1.57a.448.448,0,0,1-.9,0V.448ZM17.8.448a.448.448,0,0,1,.9,0v1.57a.448.448,0,0,1-.9,0V.448Z" transform="translate(-3)"/></g></g></g></svg>