<svg xmlns="http://www.w3.org/2000/svg" width="16.962" height="19.955" viewBox="0 0 16.962 19.955"><defs><style>.a{fill:#787878;}</style></defs><g transform="translate(0 0.001)"><g transform="translate(0 -0.001)"><path class="a" d="M16.169,24.1a2.313,2.313,0,1,1-4.426.9l3.849-1.688A2.3,2.3,0,0,1,16.169,24.1Z" transform="translate(-3.977 -7.389)"/><path class="a" d="M.55,10.595a6.6,6.6,0,0,1,1.065-7.04,2.067,2.067,0,0,1-.181-.316A2.332,2.332,0,0,1,2.595.194,2.241,2.241,0,0,1,5.572,1.383a2.147,2.147,0,0,1,.1.339,6.629,6.629,0,0,1,5.946,3.95s1.815,4.267,3.809,4.606c.061,0,1.131.031,1.457.828.308.755-.326,1.765-1.427,2.25L3.53,18.62c-1.1.486-2.316.291-2.576-.482a1.74,1.74,0,0,1,.36-1.533C2.44,14.836.55,10.595.55,10.595Z" transform="translate(0 0.001)"/></g></g></svg>