<svg xmlns="http://www.w3.org/2000/svg" width="23" height="18.399" viewBox="0 0 23 18.399"><defs><style>.a{fill:#5d5d5d;}</style></defs><path class="a" d="M39.68,17.142a3.44,3.44,0,1,1-3.44,3.44A3.438,3.438,0,0,1,39.68,17.142Z" transform="translate(-22.708 -15.062)"/><path class="a" d="M47.75,37.675a1.84,1.84,0,0,1-1.294,1.759,15.961,15.961,0,0,1-4.911.719,4.316,4.316,0,0,0,.187-1.26,7.688,7.688,0,0,0-1.572-4.658,5.354,5.354,0,0,0,4.61-.714,3.668,3.668,0,0,1,1.96,1.26A4.606,4.606,0,0,1,47.75,37.675Z" transform="translate(-24.75 -23.593)"/><circle class="a" cx="4.6" cy="4.6" r="4.6" transform="translate(2.933)"/><path class="a" d="M21.79,35.415a5.772,5.772,0,0,1,1.275,3.618,2.3,2.3,0,0,1-1.615,2.2,20,20,0,0,1-11.831,0A2.307,2.307,0,0,1,8,39.033a5.772,5.772,0,0,1,1.275-3.618,4.61,4.61,0,0,1,2.693-1.634,6.506,6.506,0,0,0,7.13,0A4.6,4.6,0,0,1,21.79,35.415Z" transform="translate(-8 -23.728)"/></svg>