<svg xmlns="http://www.w3.org/2000/svg" width="17.988" height="22.693" viewBox="0 0 17.988 22.693"><defs><style>.a{fill:#fff;}</style></defs><g transform="translate(-14.453 -36.622)"><g transform="translate(14.453 42.166)"><path class="a" d="M28.522,115.347a.78.78,0,0,1-.363-.09l-4.712-2.477-4.712,2.477a.782.782,0,0,1-1.134-.824l.9-5.247-3.812-3.716a.782.782,0,0,1,.434-1.333l5.268-.765L22.746,98.6a.815.815,0,0,1,1.4,0l2.356,4.773,5.268.765a.782.782,0,0,1,.434,1.333l-3.812,3.716.9,5.247a.781.781,0,0,1-.311.764A.773.773,0,0,1,28.522,115.347Z" transform="translate(-14.453 -98.199)"/></g><g transform="translate(24.88 41.892)"><path class="a" d="M132.622,97.946H131.8a.78.78,0,0,1-.7-.435l-.612-1.237c-.4-.77-.363-1.129.7-1.128h1.433c.431,0,.565.35.565.782v1.237C133.186,97.6,133.053,97.946,132.622,97.946Z" transform="translate(-130.256 -95.146)"/></g><g transform="translate(18.774 41.892)"><path class="a" d="M64.1,97.947H63.059c-.431,0-.619-.35-.619-.782V95.929c0-.431.187-.782.619-.782h1.65c.891.016,1.249.179.7,1.128L64.8,97.512A.783.783,0,0,1,64.1,97.947Z" transform="translate(-62.44 -95.147)"/></g><g transform="translate(18.518 36.622)"><path class="a" d="M66.378,41.3H62.47a.783.783,0,0,1-.663-.366l-2.084-3.321a.782.782,0,0,1-.021-.793c.137-.249.4-.2.684-.2h8.076c.284,0,.546-.051.684.2a.783.783,0,0,1-.021.793l-2.084,3.321A.783.783,0,0,1,66.378,41.3Z" transform="translate(-59.605 -36.622)"/></g></g></svg>