<svg xmlns="http://www.w3.org/2000/svg" width="10.931" height="10.931" viewBox="0 0 10.931 10.931"><defs><style>.a{fill:#fff;fill-rule:evenodd;}</style></defs><g transform="translate(0 0)"><path class="a" d="M7.287,5.726a.521.521,0,1,1,.521-.521.521.521,0,0,1-.521.521m-2.082,0a.521.521,0,1,1,.521-.521.521.521,0,0,1-.521.521m-2.082,0a.521.521,0,1,1,.521-.521.521.521,0,0,1-.521.521m7.783,4.525L9.962,7.323A5.206,5.206,0,1,0,5.205,10.41a7.678,7.678,0,0,0,2.834-.575l.028-.015,2.111,1.056a.521.521,0,0,0,.728-.626" transform="translate(0 0)"/></g></svg>