<svg id="path" xmlns="http://www.w3.org/2000/svg" width="6.622" height="26.486" viewBox="0 0 6.622 26.486">
  <path id="path-2" data-name="path" d="M11.311-27.887A3.321,3.321,0,0,0,8-24.577a3.321,3.321,0,0,0,3.311,3.311,3.321,3.321,0,0,0,3.311-3.311,3.321,3.321,0,0,0-3.311-3.311Zm19.865,0a3.321,3.321,0,0,0-3.311,3.311,3.321,3.321,0,0,0,3.311,3.311,3.321,3.321,0,0,0,3.311-3.311,3.321,3.321,0,0,0-3.311-3.311Zm-9.932,0a3.321,3.321,0,0,0-3.311,3.311,3.321,3.321,0,0,0,3.311,3.311,3.321,3.321,0,0,0,3.311-3.311,3.321,3.321,0,0,0-3.311-3.311Z" transform="translate(-21.266 -8) rotate(90)" fill="#f9f9f9" fill-rule="evenodd" opacity="0.996"/>
</svg>
