<svg xmlns="http://www.w3.org/2000/svg" width="12.369" height="12.369" viewBox="0 0 12.369 12.369"><defs><style>.a{fill:#272727;opacity:0.8;}</style></defs><path class="a" d="M12.078,4.776l-.951-.207a5.174,5.174,0,0,0-.306-.738l.526-.819a.37.37,0,0,0-.05-.461L9.817,1.071a.37.37,0,0,0-.461-.05l-.819.526A5.174,5.174,0,0,0,7.8,1.242L7.593.291A.37.37,0,0,0,7.232,0H5.137a.37.37,0,0,0-.361.291l-.207.951a5.174,5.174,0,0,0-.738.306l-.819-.526a.37.37,0,0,0-.461.05L1.071,2.552a.37.37,0,0,0-.05.461l.526.819a5.174,5.174,0,0,0-.306.738l-.951.207A.37.37,0,0,0,0,5.137V7.232a.37.37,0,0,0,.291.361l.951.207a5.174,5.174,0,0,0,.306.738l-.526.819a.37.37,0,0,0,.05.461L2.552,11.3a.37.37,0,0,0,.461.05l.819-.526a5.174,5.174,0,0,0,.738.306l.207.951a.37.37,0,0,0,.361.291H7.232a.37.37,0,0,0,.361-.291l.207-.951a5.174,5.174,0,0,0,.738-.306l.819.526a.37.37,0,0,0,.461-.05L11.3,9.817a.37.37,0,0,0,.05-.461l-.526-.819a5.174,5.174,0,0,0,.306-.738l.951-.207a.37.37,0,0,0,.291-.361V5.137A.37.37,0,0,0,12.078,4.776ZM8.4,6.185A2.218,2.218,0,1,1,6.185,3.967,2.22,2.22,0,0,1,8.4,6.185Zm0,0"/></svg>