<svg xmlns="http://www.w3.org/2000/svg" width="19.121" height="17.758" viewBox="0 0 19.121 17.758"><defs><style>.a{fill:#272727;}</style></defs><g transform="translate(-0.945 -0.945)"><path class="a" d="M10.909,25.167a1.054,1.054,0,0,0-1.774-.8L7.362,26.046a1.053,1.053,0,1,0,1.445,1.532L10.581,25.9a1.047,1.047,0,0,0,.329-.736Z" transform="translate(-4.01 -15.248)"/><path class="a" d="M27.575,1.006a5.215,5.215,0,0,0-3.746,1.426c-7.5,7.084-.245.232-3.548,3.351a.725.725,0,0,0-.222.494c-.019.764,1.325,1.362,2.173.56l2.547-2.4a1.023,1.023,0,0,1,1.447.042L31.258,9.81a5.243,5.243,0,0,0-3.682-8.8Z" transform="translate(-12.594 -0.039)"/><path class="a" d="M22.129,37.059a1.054,1.054,0,0,0-1.774-.8l-1.774,1.675a1.053,1.053,0,1,0,1.445,1.532L21.8,37.795A1.045,1.045,0,0,0,22.129,37.059Z" transform="translate(-11.402 -23.083)"/><path class="a" d="M18.413,10.5c-.034-.024.072.078-5.278-5.592a.341.341,0,0,0-.482-.014l-2.547,2.4a2.079,2.079,0,0,1-2.943-.086,1.385,1.385,0,0,1,.055-1.96l2.794-2.638a5.236,5.236,0,1,0-7.62,7.184l.484.512c.03-.034,0,0,1.779-1.68A1.733,1.733,0,0,1,7.548,10.2a1.719,1.719,0,0,1,1.914,2.027,1.721,1.721,0,0,1,1.914,2.029,1.716,1.716,0,0,1,1.924,1.95,1.052,1.052,0,0,0,1.293-1.632L10.047,9.759a.341.341,0,0,1,.5-.468l4.545,4.817a1.053,1.053,0,0,0,1.532-1.446L12.075,7.845a.341.341,0,0,1,.5-.468l4.546,4.817a1.054,1.054,0,0,0,1.819-.695,1.32,1.32,0,0,0-.523-1Z" transform="translate(0 0)"/><path class="a" d="M26.714,41.915a1.046,1.046,0,0,0-.753.287l-1.774,1.675a1.053,1.053,0,1,0,1.446,1.532l1.774-1.675a1.055,1.055,0,0,0-.692-1.819Z" transform="translate(-15.095 -26.994)"/><path class="a" d="M16.534,31.113a1.054,1.054,0,0,0-1.774-.8l-1.774,1.675a1.053,1.053,0,0,0,1.446,1.532l1.774-1.675A1.046,1.046,0,0,0,16.534,31.113Z" transform="translate(-7.721 -19.165)"/></g></svg>