<svg xmlns="http://www.w3.org/2000/svg" width="34.484" height="28.642" viewBox="0 0 34.484 28.642"><g transform="translate(0 -41.674)"><g transform="translate(0 41.674)"><path d="M32.545,53.291l.054.012H9.524l7.254-7.27a1.905,1.905,0,0,0,0-2.678l-1.129-1.129a1.888,1.888,0,0,0-2.665,0L.55,54.657a1.9,1.9,0,0,0,0,2.674L12.984,69.766a1.89,1.89,0,0,0,2.665,0l1.129-1.129a1.868,1.868,0,0,0,.55-1.332A1.812,1.812,0,0,0,16.778,66L9.442,58.687H32.571a1.954,1.954,0,0,0,1.913-1.934v-1.6A1.917,1.917,0,0,0,32.545,53.291Z" transform="translate(0 -41.674)"/></g></g></svg>