<svg xmlns="http://www.w3.org/2000/svg" width="20" height="20" viewBox="0 0 20 20"><defs><style>.a{fill:#5d5d5d;}</style></defs><path class="a" d="M9.927,36.7a5.128,5.128,0,1,0,5.127,5.128A5.119,5.119,0,0,0,9.927,36.7Zm0,8.461a3.334,3.334,0,1,1,3.333-3.334,3.339,3.339,0,0,1-3.333,3.334Zm6.532-8.671a1.2,1.2,0,1,1-1.2-1.2A1.193,1.193,0,0,1,16.459,36.487Zm3.4,1.214a5.92,5.92,0,0,0-1.615-4.191A5.956,5.956,0,0,0,14.05,31.9c-1.651-.094-6.6-.094-8.25,0a5.947,5.947,0,0,0-4.19,1.611A5.939,5.939,0,0,0,0,37.7C-.1,39.348-.1,44.3,0,45.949A5.92,5.92,0,0,0,1.61,50.139,5.963,5.963,0,0,0,5.8,51.755c1.651.094,6.6.094,8.25,0a5.917,5.917,0,0,0,4.19-1.616,5.959,5.959,0,0,0,1.615-4.191c.094-1.651.094-6.6,0-8.247ZM17.722,47.72a3.375,3.375,0,0,1-1.9,1.9c-1.316.522-4.439.4-5.894.4s-4.582.116-5.894-.4a3.375,3.375,0,0,1-1.9-1.9c-.522-1.317-.4-4.44-.4-5.9s-.116-4.583.4-5.9a3.375,3.375,0,0,1,1.9-1.9c1.316-.522,4.439-.4,5.894-.4s4.582-.116,5.894.4a3.375,3.375,0,0,1,1.9,1.9c.522,1.317.4,4.44.4,5.9S18.244,46.408,17.722,47.72Z" transform="translate(0.075 -31.825)"/></svg>