<svg xmlns="http://www.w3.org/2000/svg" width="24" height="20" viewBox="0 0 24 20"><defs><style>.a{fill:#272727;}</style></defs><g transform="translate(-82.424 -97)"><g transform="translate(82.424 97)"><path class="a" d="M106.424,115.113V100.934a1.989,1.989,0,0,0-2.074-1.887H102.5V97.629a.694.694,0,0,0-1.383,0v1.418H88.108V97.629a.694.694,0,0,0-1.383,0v1.418H84.5a1.989,1.989,0,0,0-2.074,1.887v14.179A1.989,1.989,0,0,0,84.5,117H104.35A1.989,1.989,0,0,0,106.424,115.113Zm-18.75-9.766h7.875a.632.632,0,1,1,0,1.258H87.674a.632.632,0,1,1,0-1.258Zm13.5,6.716h-13.5a.632.632,0,1,1,0-1.258h13.5a.632.632,0,1,1,0,1.258Z" transform="translate(-82.424 -97)"/></g></g></svg>