<svg xmlns="http://www.w3.org/2000/svg" width="9.905" height="11.718" viewBox="0 0 9.905 11.718"><defs><style>.a{fill:#fff;fill-rule:evenodd;}</style></defs><g transform="translate(0 0)"><path class="a" d="M8.9,2.082v8.193a1.433,1.433,0,0,1-1.444,1.444H2.418a1.426,1.426,0,0,1-1.41-1.444V2.082H.336A.317.317,0,0,1,0,1.746.336.336,0,0,1,.336,1.41H2.35V.336A.317.317,0,0,1,2.686,0H7.219a.336.336,0,0,1,.336.336V1.41H9.569a.336.336,0,0,1,.336.336.361.361,0,0,1-.336.336ZM3.022,1.41H6.883V.672H3.022ZM4.6,4.1a.361.361,0,0,1,.336-.336.336.336,0,0,1,.336.336V9.368a.336.336,0,0,1-.336.336A.361.361,0,0,1,4.6,9.368Zm-1.746,0a.336.336,0,0,1,.336-.336.361.361,0,0,1,.336.336V9.368A.361.361,0,0,1,3.19,9.7a.336.336,0,0,1-.336-.336Zm3.526,0a.336.336,0,0,1,.336-.336.361.361,0,0,1,.336.336V9.368a.361.361,0,0,1-.336.336.336.336,0,0,1-.336-.336Z" transform="translate(0 0)"/></g></svg>