<svg xmlns="http://www.w3.org/2000/svg" width="17.846" height="20.667" viewBox="0 0 17.846 20.667"><defs><style>.a{fill:#272727;}</style></defs><g transform="translate(-3.996 -3)"><path class="a" d="M21.65,13.4l-1.4-2.1a1.129,1.129,0,0,1-.183-.584A8.038,8.038,0,0,0,12.038,3a8.446,8.446,0,0,0-1.612.157A8.035,8.035,0,0,0,7.445,17.628v3.743a2.3,2.3,0,0,0,2.3,2.3h4.593a2.3,2.3,0,0,0,2.3-2.3,1.148,1.148,0,0,1,1.148-1.148,2.3,2.3,0,0,0,2.3-2.3V16.339a1.148,1.148,0,0,1,.635-1.027l.5-.249A1.148,1.148,0,0,0,21.65,13.4Zm-5.059-2.594-.617.109c0,.042.012.081.012.123a4,4,0,0,1-.292,1.489l.538.311a.574.574,0,0,1-.288,1.071.566.566,0,0,1-.286-.077l-.548-.316a4.01,4.01,0,0,1-1.249,1.047l.217.6A.574.574,0,0,1,13,15.549l-.211-.578a4.005,4.005,0,0,1-1.642,0l-.211.578a.574.574,0,0,1-1.079-.392l.217-.6a4.01,4.01,0,0,1-1.249-1.047l-.548.316a.566.566,0,0,1-.286.077A.574.574,0,0,1,7.7,12.837l.538-.311a4,4,0,0,1-.292-1.489c0-.042.011-.081.012-.123l-.617-.109a.574.574,0,1,1,.2-1.13l.624.11a3.99,3.99,0,0,1,.813-1.414l-.406-.484a.574.574,0,1,1,.88-.738l.4.48a3.978,3.978,0,0,1,1.535-.554V6.444a.574.574,0,1,1,1.148,0v.632a3.978,3.978,0,0,1,1.535.554l.4-.48a.574.574,0,1,1,.88.738l-.406.484a3.99,3.99,0,0,1,.813,1.414l.624-.11a.567.567,0,0,1,.665.465.574.574,0,0,1-.465.665Z" transform="translate(0 0)"/><circle class="a" cx="2.296" cy="2.296" r="2.296" transform="translate(9.672 8.741)"/></g></svg>