<svg xmlns="http://www.w3.org/2000/svg" width="24" height="24.001" viewBox="0 0 24 24.001"><defs><style>.a{fill:#272727;}</style></defs><g transform="translate(-8 -8)"><path class="a" d="M41,36a5,5,0,1,1-5,5A5,5,0,0,1,41,36Zm2.92,5.75v-1.5H41.75V38.08h-1.5v2.17H38.08v1.5h2.17v2.17h1.5V41.75Z" transform="translate(-14 -14)"/><path class="a" d="M13.975,34.02a7.991,7.991,0,0,0,7.705,0,6.393,6.393,0,0,1,1.335.235A7,7,0,0,0,21.245,44a7.77,7.77,0,0,0,.56.71,26.029,26.029,0,0,1-11.7-.865A3.006,3.006,0,0,1,8,40.97a7.546,7.546,0,0,1,1.665-4.72A6,6,0,0,1,13.975,34.02Z" transform="translate(0 -13.01)"/><path class="a" d="M21.65,8a6,6,0,1,1-6,6A6,6,0,0,1,21.65,8Z" transform="translate(-3.825)"/></g></svg>