<svg xmlns="http://www.w3.org/2000/svg" width="24" height="20" viewBox="0 0 24 20"><defs><style>.a{fill:#272727;}</style></defs><g transform="translate(-2.5 -9.9)"><g transform="translate(2.5 9.9)"><path class="a" d="M63.187,48.6l1.913-.749a3.815,3.815,0,0,0,1-.638L63.631,45a3.753,3.753,0,0,0-.527,1.054l-.555,2A.476.476,0,0,0,63.187,48.6Z" transform="translate(-47.593 -36.426)"/><path class="a" d="M77.264,21.124l-.915-.832a1.055,1.055,0,0,0-1.5.083L70,25.782l2.523,2.246,4.824-5.407A1.057,1.057,0,0,0,77.264,21.124Z" transform="translate(-53.619 -17.214)"/><path class="a" d="M18.4,23.183a1.58,1.58,0,0,1-.667.125,1.78,1.78,0,0,1-1.7-2.272l.469-1.8a4.287,4.287,0,0,1,.938-1.748l4.05-4.569v-.749A2.263,2.263,0,0,0,19.268,9.9H4.723A2.247,2.247,0,0,0,2.5,12.172V29.226a.684.684,0,0,0,.4.624.62.62,0,0,0,.3.05.666.666,0,0,0,.42-.15l5.161-4.27h10.52a2.226,2.226,0,0,0,2.222-2.247V21.585a4.2,4.2,0,0,1-1.408.924ZM7.34,13.6h9.31a.674.674,0,0,1,0,1.348H7.34a.668.668,0,0,1-.667-.674A.653.653,0,0,1,7.34,13.6Zm5.8,8.24H7.34a.674.674,0,0,1,0-1.348h5.8a.668.668,0,0,1,.667.674A.684.684,0,0,1,13.143,21.835Zm.988-3.446H7.34a.674.674,0,0,1,0-1.348h6.791a.674.674,0,0,1,0,1.348Z" transform="translate(-2.5 -9.9)"/></g></g></svg>