<svg xmlns="http://www.w3.org/2000/svg" width="24.262" height="21.667" viewBox="0 0 24.262 21.667"><defs><style>.a{fill:#a1a1a1;}</style></defs><g transform="translate(-0.102 -5.432)"><g transform="translate(0.101 5.432)"><g transform="translate(0)"><path class="a" d="M24.364,13.435a4.1,4.1,0,0,1-.955,1.1c-.882.9-1.777,1.782-2.674,2.674l-2.674,2.674-.834.836a.851.851,0,0,1-1.023.221.873.873,0,0,1-.5-.885q0-1.56,0-3.121a1.746,1.746,0,0,0-.012-.243h-.151c-1.718.024-3.437,0-5.153.088a10.563,10.563,0,0,0-3.775.773,5.348,5.348,0,0,0-3.116,3.33,12.147,12.147,0,0,0-.462,4.538c.019.355.056.707.08,1.062a1.458,1.458,0,0,1,0,.243.389.389,0,0,1-.277.34.35.35,0,0,1-.425-.107,3.194,3.194,0,0,1-.35-.576A28.986,28.986,0,0,1,.548,22.448a10.182,10.182,0,0,1-.438-3.42,13.952,13.952,0,0,1,.452-3.1,7.217,7.217,0,0,1,1.75-3.024,8.05,8.05,0,0,1,2.025-1.5A12.015,12.015,0,0,1,7.33,10.309a18.339,18.339,0,0,1,3.7-.486c1.458-.034,2.931-.039,4.4-.056H15.7V6.394a.972.972,0,0,1,.173-.62.848.848,0,0,1,1.308-.066c.712.7,1.417,1.412,2.124,2.12q2.277,2.273,4.545,4.548a6.278,6.278,0,0,1,.51.668v.386Z" transform="translate(-0.101 -5.432)"/></g></g></g></svg>