<svg xmlns="http://www.w3.org/2000/svg" width="17.028" height="17" viewBox="0 0 17.028 17"><defs><style>.a{fill:#5d5d5d;}</style></defs><g transform="translate(-38.3 -445.741)"><g transform="translate(38.3 445.741)"><g transform="translate(0 0)"><g transform="translate(0 0)"><rect class="a" width="6.172" height="6.34" transform="translate(0.599 0.603)"/><path class="a" d="M45.075,44.94H38.9l.6.6V39.2l-.6.6h6.172l-.6-.6v6.34a.6.6,0,0,0,1.206,0V39.2a.613.613,0,0,0-.6-.6H38.9a.613.613,0,0,0-.6.6v6.34a.613.613,0,0,0,.6.6h6.172a.6.6,0,1,0,0-1.206Z" transform="translate(-38.3 -38.6)"/></g><g transform="translate(0 9.452)"><rect class="a" width="6.172" height="6.34" transform="translate(0.599 0.603)"/><path class="a" d="M45.075,280.04H38.9l.6.6V274.3l-.6.6h6.172l-.6-.6v6.34a.6.6,0,1,0,1.206,0V274.3a.613.613,0,0,0-.6-.6H38.9a.613.613,0,0,0-.6.6v6.34a.613.613,0,0,0,.6.6h6.172a.6.6,0,0,0,0-1.206Z" transform="translate(-38.3 -273.7)"/></g></g><g transform="translate(9.649 0)"><g transform="translate(0 0)"><rect class="a" width="6.172" height="6.34" transform="translate(0.599 0.603)"/><path class="a" d="M285.075,44.94H278.9l.6.6V39.2l-.6.6h6.172l-.6-.6v6.34a.6.6,0,0,0,1.206,0V39.2a.613.613,0,0,0-.6-.6H278.9a.613.613,0,0,0-.6.6v6.34a.613.613,0,0,0,.6.6h6.172a.6.6,0,1,0,0-1.206Z" transform="translate(-278.3 -38.6)"/></g><g transform="translate(0 9.452)"><rect class="a" width="6.172" height="6.34" transform="translate(0.599 0.603)"/><path class="a" d="M285.075,280.04H278.9l.6.6V274.3l-.6.6h6.172l-.6-.6v6.34a.6.6,0,0,0,1.206,0V274.3a.613.613,0,0,0-.6-.6H278.9a.613.613,0,0,0-.6.6v6.34a.613.613,0,0,0,.6.6h6.172a.6.6,0,0,0,0-1.206Z" transform="translate(-278.3 -273.7)"/></g></g></g></g></svg>