<svg xmlns="http://www.w3.org/2000/svg" width="25.845" height="19" viewBox="0 0 25.845 19"><defs><style>.a{fill:#272727;fill-rule:evenodd;}</style></defs><g transform="translate(-0.008 -605.064)"><g transform="translate(0.008 605.064)"><path class="a" d="M4.551,14.845V8.7l7.219,2.972a1.481,1.481,0,0,0,1.137,0l7.4-3.046v6.223a.768.768,0,0,1-.062.294c0,.009-1.417,3.371-7.746,3.859a.738.738,0,0,1-.127,0c-5.755-.438-7.453-3.252-7.721-3.776a.749.749,0,0,1-.1-.378ZM.472,4.822,12.052.057a.748.748,0,0,1,.57,0L24.2,4.822a.752.752,0,0,1,.3,1.166v7.176l1.239,1.984a.752.752,0,0,1-.637,1.147l-2.708,0a.753.753,0,0,1-.613-1.188L23,13.165V6.706L12.622,10.975a.748.748,0,0,1-.57,0L.472,6.209a.751.751,0,0,1,0-1.387Z" transform="translate(-0.008 -0.001)"/></g></g></svg>