<svg xmlns="http://www.w3.org/2000/svg" width="16.242" height="17.333" viewBox="0 0 16.242 17.333"><defs><style>.a{fill:#939393;}</style></defs><g transform="translate(-62 82.333)"><g transform="translate(54 -87.333)"><path class="a" d="M23.921,16.037l-.693-.573A1.738,1.738,0,0,1,22.6,14.04v-.747a1.738,1.738,0,0,1,.624-1.424l.693-.573a.87.87,0,0,0,.208-1.1L23.124,8.456a.866.866,0,0,0-1.049-.373l-.867.313a1.73,1.73,0,0,1-1.543-.165,4.748,4.748,0,0,0-.641-.373A1.736,1.736,0,0,1,18.106,6.6l-.147-.868A.867.867,0,0,0,17.092,5H15.1a.867.867,0,0,0-.867.729l-.147.868A1.737,1.737,0,0,1,13.2,7.857a4.745,4.745,0,0,0-.641.373,1.73,1.73,0,0,1-1.543.165l-.867-.313a.866.866,0,0,0-1.031.373L8.113,10.193a.87.87,0,0,0,.208,1.1l.693.573a1.738,1.738,0,0,1,.624,1.424v.747a1.738,1.738,0,0,1-.624,1.424l-.693.573a.87.87,0,0,0-.208,1.1l1.005,1.737a.866.866,0,0,0,1.049.373l.867-.313a1.73,1.73,0,0,1,1.543.165,4.745,4.745,0,0,0,.641.373,1.737,1.737,0,0,1,.919,1.259l.147.868a.867.867,0,0,0,.867.729h1.993a.867.867,0,0,0,.867-.729l.147-.868a1.736,1.736,0,0,1,.919-1.259,4.748,4.748,0,0,0,.641-.373,1.73,1.73,0,0,1,1.543-.165l.867.313a.866.866,0,0,0,1-.373l1.005-1.737A.87.87,0,0,0,23.921,16.037Zm-7.8.234a2.6,2.6,0,1,1,1.838-.763A2.6,2.6,0,0,1,16.121,16.272Z"/></g></g></svg>