<svg xmlns="http://www.w3.org/2000/svg" width="25.474" height="25.477" viewBox="0 0 25.474 25.477"><defs><style>.a{fill:#272727;}</style></defs><g transform="translate(10.45)"><path class="a" d="M213.064,0a3.074,3.074,0,0,0-3.035,3.035,3.074,3.074,0,0,0,3.035,3.035,3.036,3.036,0,0,0,0-6.071Z" transform="translate(-210.029)"/></g><g transform="translate(8.957 6.071)"><path class="a" d="M187.871,122a4.451,4.451,0,0,1-3.314,1.493A4.56,4.56,0,0,1,181.194,122a4.444,4.444,0,0,0-1.165,2.986v.746a.746.746,0,0,0,.746.746h7.514a.746.746,0,0,0,.746-.746v-.746A4.444,4.444,0,0,0,187.871,122Z" transform="translate(-180.029 -122)"/></g><g transform="translate(0 14.457)"><g transform="translate(0)"><path class="a" d="M7.236,298.984l-3.8-7.626a1.493,1.493,0,0,0-2-.671l-.994.492a.747.747,0,0,0-.336,1l4.478,8.957a.747.747,0,0,0,1,.335l.981-.486A1.493,1.493,0,0,0,7.236,298.984Z" transform="translate(-0.024 -290.532)"/></g></g><g transform="translate(4.428 11.767)"><path class="a" d="M109.453,237.037a1.488,1.488,0,0,0-1.97.194l-4.08,5.016a1.8,1.8,0,0,1-1.1.478H98.819a.746.746,0,1,1,0-1.493H101.8a1.493,1.493,0,1,0,0-2.986H97.894c-.372,0-.557-.236-.851-.493a5.194,5.194,0,0,0-4.633-1.134,5.445,5.445,0,0,0-2.292,1.144l-.022-.018-1.08.95,4.243,8.507H101.8a4.5,4.5,0,0,0,3.583-1.791l4.379-6.27A1.5,1.5,0,0,0,109.453,237.037Z" transform="translate(-89.016 -236.479)"/></g></svg>