<svg xmlns="http://www.w3.org/2000/svg" width="20" height="16" viewBox="0 0 20 16"><defs><style>.a{fill:#7480ff;}</style></defs><path class="a" d="M17.944,52.069c.013.175.013.35.013.525A11.491,11.491,0,0,1,6.294,64.082,11.712,11.712,0,0,1,0,62.27a8.606,8.606,0,0,0,.99.05,8.289,8.289,0,0,0,5.089-1.725,4.1,4.1,0,0,1-3.833-2.8,5.246,5.246,0,0,0,.774.062A4.4,4.4,0,0,0,4.1,57.72,4.054,4.054,0,0,1,.812,53.757v-.05a4.176,4.176,0,0,0,1.853.512A4.019,4.019,0,0,1,.838,50.857,3.961,3.961,0,0,1,1.4,48.819a11.711,11.711,0,0,0,8.452,4.225,4.492,4.492,0,0,1-.1-.925,4.067,4.067,0,0,1,4.1-4.037,4.118,4.118,0,0,1,2.995,1.275,8.146,8.146,0,0,0,2.6-.975,4.038,4.038,0,0,1-1.8,2.225A8.316,8.316,0,0,0,20,49.982a8.74,8.74,0,0,1-2.056,2.087Z" transform="translate(0 -48.082)"/></svg>