<svg xmlns="http://www.w3.org/2000/svg" width="20" height="20" viewBox="0 0 20 20"><defs><style>.a{fill:#5d5d5d;}</style></defs><path class="a" d="M10,0A10.039,10.039,0,0,0,0,10a9.933,9.933,0,0,0,1.416,5.121L0,20l4.879-1.416A9.933,9.933,0,0,0,10,20,10,10,0,1,0,10,0Zm6.252,14.225-.465.465c-.658.658-2.172.606-3.145.418-3.234-.625-7.005-4.28-7.733-7.445-.36-1.568-.161-2.931.359-3.451l.465-.465a.659.659,0,0,1,.93,0L8.525,5.608a.658.658,0,0,1,0,.93L8.06,7a1.319,1.319,0,0,0,0,1.861L11.134,11.9A1.315,1.315,0,0,0,13,11.9l.465-.465a.688.688,0,0,1,.931,0l1.861,1.861a.657.657,0,0,1,0,.931Zm0,0"/></svg>